<svg width="39" height="47" viewBox="0 0 39 47" fill="none" xmlns="http://www.w3.org/2000/svg">
<path d="M29.5341 5.46713V2.0085C29.5341 1.09951 28.8123 0.345703 27.9419 0.345703C27.0715 0.345703 26.3497 1.09951 26.3497 2.0085V5.33411H12.5504V2.0085C12.5504 1.09951 11.8286 0.345703 10.9582 0.345703C10.0878 0.345703 9.36597 1.09951 9.36597 2.0085V5.46713C3.63394 6.0214 0.852852 9.59088 0.428258 14.8897C0.385799 15.5326 0.895312 16.0647 1.48974 16.0647H37.4104C38.026 16.0647 38.5355 15.5104 38.4718 14.8897C38.0472 9.59088 35.2662 6.0214 29.5341 5.46713Z" fill="#292D32"/>
<path d="M36.4343 19.3901H2.46672C1.29909 19.3901 0.34375 20.3877 0.34375 21.6071V35.2643C0.34375 41.9155 3.52821 46.3496 10.9586 46.3496H27.9424C35.3728 46.3496 38.5572 41.9155 38.5572 35.2643V21.6071C38.5572 20.3877 37.6019 19.3901 36.4343 19.3901ZM13.5274 37.9469C13.4213 38.0356 13.3151 38.1464 13.209 38.213C13.0816 38.3016 12.9542 38.3681 12.8268 38.4125C12.6994 38.479 12.5721 38.5233 12.4447 38.5455C12.2961 38.5677 12.1687 38.5899 12.0201 38.5899C11.7441 38.5899 11.4681 38.5233 11.2134 38.4125C10.9374 38.3016 10.7251 38.1464 10.5128 37.9469C10.1306 37.5257 9.89712 36.9492 9.89712 36.3728C9.89712 35.7964 10.1306 35.2199 10.5128 34.7987C10.7251 34.5991 10.9374 34.4439 11.2134 34.3331C11.5955 34.1557 12.0201 34.1114 12.4447 34.2001C12.5721 34.2222 12.6994 34.2666 12.8268 34.3331C12.9542 34.3774 13.0816 34.4439 13.209 34.5326C13.3151 34.6213 13.4213 34.71 13.5274 34.7987C13.9095 35.2199 14.1431 35.7964 14.1431 36.3728C14.1431 36.9492 13.9095 37.5257 13.5274 37.9469ZM13.5274 30.1872C13.124 30.5862 12.5721 30.8301 12.0201 30.8301C11.4681 30.8301 10.9161 30.5862 10.5128 30.1872C10.1306 29.7659 9.89712 29.1895 9.89712 28.6131C9.89712 28.0366 10.1306 27.4602 10.5128 27.0389C11.1072 26.4182 12.0413 26.2186 12.8268 26.5733C13.1028 26.6842 13.3363 26.8394 13.5274 27.0389C13.9095 27.4602 14.1431 28.0366 14.1431 28.6131C14.1431 29.1895 13.9095 29.7659 13.5274 30.1872ZM20.9578 37.9469C20.5544 38.346 20.0025 38.5899 19.4505 38.5899C18.8985 38.5899 18.3465 38.346 17.9432 37.9469C17.561 37.5257 17.3275 36.9492 17.3275 36.3728C17.3275 35.7964 17.561 35.2199 17.9432 34.7987C18.7287 33.9784 20.1723 33.9784 20.9578 34.7987C21.3399 35.2199 21.5735 35.7964 21.5735 36.3728C21.5735 36.9492 21.3399 37.5257 20.9578 37.9469ZM20.9578 30.1872C20.8517 30.2759 20.7455 30.3645 20.6394 30.4532C20.512 30.5419 20.3846 30.6084 20.2572 30.6528C20.1298 30.7193 20.0025 30.7636 19.8751 30.7858C19.7265 30.8079 19.5991 30.8301 19.4505 30.8301C18.8985 30.8301 18.3465 30.5862 17.9432 30.1872C17.561 29.7659 17.3275 29.1895 17.3275 28.6131C17.3275 28.0366 17.561 27.4602 17.9432 27.0389C18.1342 26.8394 18.3678 26.6842 18.6438 26.5733C19.4293 26.2186 20.3634 26.4182 20.9578 27.0389C21.3399 27.4602 21.5735 28.0366 21.5735 28.6131C21.5735 29.1895 21.3399 29.7659 20.9578 30.1872ZM28.3882 37.9469C27.9848 38.346 27.4329 38.5899 26.8809 38.5899C26.3289 38.5899 25.7769 38.346 25.3736 37.9469C24.9914 37.5257 24.7579 36.9492 24.7579 36.3728C24.7579 35.7964 24.9914 35.2199 25.3736 34.7987C26.1591 33.9784 27.6027 33.9784 28.3882 34.7987C28.7703 35.2199 29.0039 35.7964 29.0039 36.3728C29.0039 36.9492 28.7703 37.5257 28.3882 37.9469ZM28.3882 30.1872C28.2821 30.2759 28.1759 30.3645 28.0698 30.4532C27.9424 30.5419 27.815 30.6084 27.6876 30.6528C27.5602 30.7193 27.4329 30.7636 27.3055 30.7858C27.1569 30.8079 27.0083 30.8301 26.8809 30.8301C26.3289 30.8301 25.7769 30.5862 25.3736 30.1872C24.9914 29.7659 24.7579 29.1895 24.7579 28.6131C24.7579 28.0366 24.9914 27.4602 25.3736 27.0389C25.5859 26.8394 25.7982 26.6842 26.0742 26.5733C26.4563 26.396 26.8809 26.3516 27.3055 26.4403C27.4329 26.4625 27.5602 26.5068 27.6876 26.5733C27.815 26.6177 27.9424 26.6842 28.0698 26.7729L28.3882 27.0389C28.7703 27.4602 29.0039 28.0366 29.0039 28.6131C29.0039 29.1895 28.7703 29.7659 28.3882 30.1872Z" fill="#292D32"/>
</svg>
