<svg width="1044" height="330" viewBox="0 0 1044 330" fill="none" xmlns="http://www.w3.org/2000/svg">
<rect x="0.75" width="1043" height="328.168" fill="#FFFEFE"/>
<rect x="0.75" width="1043" height="328.168" fill="url(#paint0_linear_32_11)"/>
<path d="M496.362 327.953C495.407 326.682 472.923 296.735 469.285 288.985L470.193 288.712C473.799 296.397 496.96 327.243 497.193 327.554L496.362 327.953Z" fill="#88983D"/>
<path d="M477.065 272.537C476.085 274.475 475.335 276.483 474.826 278.533C474.306 280.542 473.924 282.571 473.682 284.613C473.434 286.655 473.329 288.705 473.367 290.756C473.382 292.847 473.646 294.932 474.157 296.983C475.142 295.046 475.894 293.038 476.401 290.987C476.922 288.979 477.303 286.949 477.54 284.906C477.784 282.865 477.887 280.814 477.85 278.763C477.834 276.673 477.571 274.588 477.065 272.537Z" fill="#88983D"/>
<path d="M483.318 281.877C482.125 283.683 481.152 285.576 480.413 287.531C479.669 289.442 479.06 291.385 478.588 293.351C478.111 295.316 477.775 297.301 477.581 299.297C477.36 301.331 477.388 303.379 477.664 305.409C478.862 303.605 479.837 301.712 480.574 299.756C481.319 297.845 481.927 295.902 482.394 293.935C482.868 291.97 483.202 289.985 483.396 287.989C483.616 285.955 483.59 283.908 483.318 281.877Z" fill="#88983D"/>
<path d="M490.012 292.751C488.961 294.43 488.132 296.191 487.539 298.007C486.941 299.776 486.479 301.572 486.156 303.386C485.827 305.2 485.64 307.028 485.596 308.86C485.528 310.736 485.709 312.613 486.135 314.459C487.191 312.782 488.022 311.021 488.614 309.204C489.213 307.436 489.673 305.639 489.992 303.824C490.317 302.01 490.502 300.182 490.546 298.35C490.613 296.474 490.434 294.598 490.012 292.751Z" fill="#88983D"/>
<path d="M494.211 303.605C493.156 305.011 492.314 306.512 491.704 308.077C491.093 309.589 490.618 311.134 490.28 312.699C489.937 314.264 489.735 315.847 489.677 317.434C489.594 319.073 489.759 320.714 490.168 322.321C491.228 320.916 492.071 319.415 492.681 317.849C493.292 316.337 493.766 314.792 494.099 313.226C494.438 311.661 494.638 310.078 494.697 308.49C494.779 306.852 494.616 305.212 494.211 303.605Z" fill="#88983D"/>
<path d="M499.614 310.389C498.538 311.608 497.649 312.926 496.967 314.316C496.299 315.642 495.743 317.003 495.303 318.389C494.867 319.765 494.531 321.16 494.298 322.567C494.189 323.276 494.089 323.981 494.023 324.7C493.989 325.432 493.891 326.162 493.73 326.884C493.954 326.788 494.169 326.679 494.374 326.559L494.896 326.141C495.229 325.855 495.535 325.55 495.81 325.227C496.341 324.606 496.81 323.952 497.215 323.273C498.001 321.953 498.619 320.572 499.059 319.153C499.507 317.746 499.798 316.31 499.926 314.862C500.083 313.367 499.978 311.861 499.614 310.389Z" fill="#88983D"/>
<path d="M471.854 293.643C470.095 292.102 468.116 290.73 465.958 289.557C463.878 288.403 461.7 287.365 459.441 286.452C457.184 285.533 454.849 284.743 452.454 284.088C449.993 283.391 447.437 282.93 444.84 282.714C446.595 284.259 448.573 285.632 450.733 286.805C452.812 287.96 454.99 288.996 457.253 289.906C459.511 290.82 461.847 291.609 464.243 292.265C466.703 292.96 469.258 293.423 471.854 293.643Z" fill="#88983D"/>
<path d="M476.598 302.289C474.349 300.819 471.912 299.543 469.326 298.484C466.815 297.431 464.225 296.504 461.571 295.708C458.919 294.906 456.206 294.239 453.449 293.711C450.63 293.146 447.744 292.824 444.84 292.751C447.086 294.225 449.523 295.502 452.109 296.561C454.619 297.614 457.211 298.54 459.867 299.332C462.521 300.13 465.234 300.795 467.991 301.325C470.809 301.888 473.695 302.211 476.598 302.289Z" fill="#88983D"/>
<path d="M481.97 311.897C479.968 310.477 477.768 309.245 475.415 308.224C473.141 307.215 470.783 306.33 468.36 305.575C465.939 304.814 463.455 304.188 460.926 303.7C458.33 303.175 455.666 302.893 452.988 302.858C454.988 304.283 457.186 305.517 459.541 306.536C461.815 307.547 464.173 308.43 466.599 309.181C469.022 309.938 471.506 310.563 474.035 311.051C476.631 311.574 479.293 311.858 481.97 311.897Z" fill="#88983D"/>
<path d="M490.51 319.294C488.765 318.086 486.83 317.067 484.752 316.263C482.765 315.473 480.703 314.81 478.584 314.281C476.468 313.746 474.301 313.349 472.105 313.092C469.824 312.805 467.506 312.761 465.211 312.963C466.952 314.174 468.888 315.195 470.966 315.998C472.953 316.789 475.017 317.45 477.137 317.975C479.255 318.506 481.422 318.902 483.618 319.159C485.898 319.445 488.215 319.491 490.51 319.294Z" fill="#88983D"/>
<path d="M493.542 325.93C491.624 324.459 489.5 323.17 487.213 322.087C485.005 321.019 482.708 320.072 480.339 319.253C477.972 318.428 475.537 317.736 473.05 317.181C470.497 316.588 467.866 316.234 465.211 316.128C467.125 317.603 469.248 318.894 471.537 319.976C473.744 321.045 476.042 321.991 478.414 322.805C480.783 323.626 483.218 324.316 485.705 324.872C488.257 325.464 490.887 325.819 493.542 325.93Z" fill="#88983D"/>
<path d="M467.948 289.963C468.302 287.898 468.239 285.801 467.76 283.752C467.338 281.82 466.675 279.927 465.779 278.101C464.892 276.273 463.774 274.522 462.442 272.875C461.053 271.109 459.315 269.536 457.295 268.215C456.933 270.281 456.994 272.379 457.475 274.429C457.896 276.361 458.562 278.254 459.464 280.077C460.357 281.904 461.478 283.653 462.81 285.301C464.199 287.065 465.934 288.639 467.948 289.963Z" fill="#88983D"/>
<path d="M499.112 329.217C499.102 328.701 497.925 277.424 485.582 261.805L486.401 261.391C498.889 277.194 500.038 327.089 500.082 329.205L499.112 329.217Z" fill="#F9CB30"/>
<path d="M490.042 268.519C489.658 266.204 489.56 263.864 489.751 261.534C489.912 259.264 490.228 257.002 490.696 254.759C491.148 252.525 491.764 250.313 492.488 248.119C493.211 245.911 494.124 243.786 495.1 241.523C495.375 242.085 495.585 242.667 495.725 243.26C495.881 243.842 495.995 244.431 496.066 245.024C496.218 246.188 496.283 247.357 496.263 248.527C496.22 250.828 495.957 253.123 495.474 255.392C495.005 257.654 494.341 259.887 493.487 262.076C492.643 264.32 491.487 266.481 490.042 268.519Z" fill="#F9CB30"/>
<path d="M473.479 236.923C475.626 238.577 477.466 240.467 478.946 242.536C480.387 244.499 481.613 246.558 482.61 248.689C483.616 250.818 484.385 253.013 484.91 255.25C485.496 257.588 485.657 259.981 485.389 262.355C483.237 260.705 481.393 258.815 479.914 256.744C478.472 254.782 477.249 252.723 476.259 250.589C475.259 248.458 474.493 246.262 473.967 244.026C473.383 241.689 473.219 239.297 473.479 236.923Z" fill="#F9CB30"/>
<path d="M465.211 249.639C467.758 251.274 470.163 253.046 472.41 254.941C474.635 256.784 476.758 258.668 478.836 260.563L485.008 266.224C486.043 267.151 487.089 268.064 488.195 268.929C489.287 269.846 490.559 270.614 491.961 271.203C491.106 271.322 490.229 271.305 489.383 271.151C488.53 271.015 487.697 270.805 486.9 270.526C485.34 269.978 483.857 269.299 482.477 268.5C479.799 266.933 477.354 265.125 475.191 263.113C473.04 261.141 471.103 259.027 469.402 256.792C467.65 254.551 466.243 252.149 465.211 249.639Z" fill="#F9CB30"/>
<path d="M465.211 262.355C468.35 263.608 471.345 265.08 474.16 266.754C476.946 268.383 479.626 270.123 482.19 271.97C484.759 273.812 487.207 275.759 489.524 277.804C491.903 279.866 494.046 282.094 495.928 284.461C492.786 283.213 489.789 281.742 486.974 280.066C484.188 278.439 481.509 276.697 478.949 274.847C476.383 273.002 473.937 271.054 471.62 269.009C469.243 266.947 467.098 264.72 465.211 262.355Z" fill="#F9CB30"/>
<path d="M465.211 272.333C468.374 273.509 471.4 274.907 474.253 276.511C477.075 278.07 479.795 279.744 482.402 281.526C485.015 283.303 487.509 285.187 489.875 287.172C492.304 289.174 494.504 291.346 496.447 293.662C493.281 292.49 490.253 291.093 487.4 289.487C484.578 287.929 481.859 286.254 479.255 284.469C476.646 282.689 474.153 280.803 471.786 278.818C469.358 276.816 467.158 274.646 465.211 272.333Z" fill="#F9CB30"/>
<path d="M465.211 282.998C468.358 283.943 471.39 285.119 474.268 286.509C477.109 287.855 479.857 289.321 482.502 290.901C485.152 292.475 487.693 294.164 490.114 295.959C492.601 297.768 494.871 299.759 496.896 301.906C493.746 300.964 490.712 299.79 487.835 298.399C484.994 297.053 482.246 295.586 479.604 294.003C476.957 292.424 474.418 290.735 471.997 288.94C469.511 287.13 467.24 285.141 465.211 282.998Z" fill="#F9CB30"/>
<path d="M465.211 290.735C468.504 291.794 471.675 293.08 474.687 294.58C477.666 296.036 480.552 297.612 483.332 299.3C486.117 300.984 488.793 302.78 491.348 304.683C493.966 306.599 496.368 308.696 498.524 310.949C495.228 309.895 492.056 308.609 489.044 307.108C486.064 305.653 483.18 304.076 480.403 302.384C477.621 300.697 474.947 298.899 472.391 296.997C469.774 295.081 467.372 292.985 465.211 290.735Z" fill="#F9CB30"/>
<path d="M461.137 297.984C464.565 299.258 467.875 300.726 471.042 302.377C474.187 303.986 477.23 305.687 480.196 307.462C483.171 309.227 486.064 311.067 488.905 312.969C491.776 314.853 494.488 316.817 497.458 318.761C495.551 318.51 493.689 318.076 491.912 317.467C490.153 316.88 488.434 316.218 486.762 315.486C483.473 314.016 480.311 312.371 477.297 310.564C474.293 308.764 471.423 306.828 468.698 304.765C465.923 302.695 463.391 300.425 461.137 297.984Z" fill="#F9CB30"/>
<path d="M457.062 305.512C460.767 306.663 464.362 308.028 467.819 309.597C471.254 311.127 474.587 312.769 477.844 314.497C481.102 316.225 484.281 318.042 487.381 319.948C488.931 320.903 490.466 321.876 491.986 322.866C493.456 323.908 495.018 324.864 496.66 325.727C495.63 325.727 494.608 325.587 493.638 325.312C492.664 325.081 491.719 324.801 490.784 324.509C488.919 323.918 487.117 323.241 485.35 322.524C481.841 321.08 478.44 319.476 475.161 317.72C471.883 315.977 468.718 314.103 465.678 312.104C462.583 310.1 459.702 307.896 457.062 305.512Z" fill="#F9CB30"/>
<path d="M493.73 277.375C493.888 274.86 494.354 272.363 495.121 269.92C495.845 267.522 496.74 265.159 497.802 262.842C498.856 260.524 500.078 258.256 501.461 256.05C502.845 253.787 504.508 251.64 506.423 249.639C506.271 252.155 505.807 254.653 505.039 257.096C504.315 259.494 503.418 261.857 502.351 264.172C501.292 266.489 500.069 268.757 498.686 270.962C497.301 273.224 495.641 275.372 493.73 277.375Z" fill="#F9CB30"/>
<path d="M493.73 286.081C494.325 283.578 495.221 281.128 496.408 278.765C497.544 276.44 498.844 274.169 500.301 271.961C501.751 269.751 503.358 267.609 505.115 265.545C506.883 263.426 508.907 261.45 511.158 259.646C510.569 262.15 509.674 264.601 508.487 266.965C507.351 269.289 506.048 271.56 504.587 273.766C503.132 275.974 501.523 278.116 499.767 280.179C497.998 282.298 495.976 284.274 493.73 286.081Z" fill="#F9CB30"/>
<path d="M493.73 294.499C494.75 291.959 496.062 289.5 497.649 287.154C499.183 284.84 500.872 282.594 502.708 280.425C504.537 278.252 506.513 276.161 508.628 274.161C510.759 272.108 513.126 270.219 515.699 268.519C514.684 271.06 513.374 273.52 511.785 275.866C510.252 278.18 508.561 280.426 506.721 282.592C504.888 284.763 502.91 286.853 500.795 288.853C498.664 290.905 496.299 292.795 493.73 294.499Z" fill="#F9CB30"/>
<path d="M497.805 303.786C499.403 301.041 501.28 298.405 503.415 295.904C505.501 293.416 507.726 291.021 510.091 288.716C512.448 286.407 514.941 284.187 517.571 282.056C520.212 279.884 523.074 277.89 526.127 276.097C524.535 278.845 522.66 281.482 520.521 283.983C518.436 286.47 516.209 288.864 513.841 291.167C511.479 293.473 508.983 295.692 506.355 297.824C503.713 299.994 500.854 301.988 497.805 303.786Z" fill="#F9CB30"/>
<path d="M497.805 313.417C499.765 310.807 501.987 308.329 504.449 306.008C506.859 303.695 509.397 301.485 512.062 299.378C514.72 297.265 517.501 295.251 520.408 293.338C523.33 291.385 526.448 289.629 529.732 288.086C527.778 290.699 525.557 293.178 523.092 295.499C520.682 297.811 518.143 300.02 515.475 302.125C512.812 304.234 510.029 306.246 507.124 308.161C504.201 310.112 501.084 311.87 497.805 313.417Z" fill="#F9CB30"/>
<path d="M497.805 319.592C499.979 317.341 502.394 315.245 505.023 313.328C507.591 311.426 510.277 309.628 513.071 307.941C515.86 306.249 518.755 304.672 521.746 303.217C524.769 301.716 527.953 300.432 531.259 299.378C529.089 301.633 526.675 303.73 524.044 305.646C521.477 307.549 518.789 309.346 515.992 311.029C513.2 312.718 510.303 314.293 507.313 315.749C504.289 317.248 501.108 318.534 497.805 319.592Z" fill="#F9CB30"/>
<path d="M497.805 324.75C500.413 322.695 503.234 320.821 506.238 319.147C509.187 317.471 512.226 315.921 515.354 314.497C518.478 313.065 521.689 311.756 524.987 310.568C528.315 309.346 531.769 308.354 535.309 307.603C532.705 309.662 529.884 311.538 526.879 313.211C523.93 314.887 520.89 316.435 517.76 317.857C514.633 319.284 511.421 320.592 508.124 321.781C504.795 323.002 501.343 323.995 497.805 324.75Z" fill="#F9CB30"/>
<path d="M497.805 328.096C500.934 326.371 504.234 324.852 507.671 323.554C511.056 322.248 514.508 321.085 518.016 320.043C521.523 319 525.092 318.089 528.722 317.311C532.387 316.502 536.129 315.936 539.911 315.619C536.785 317.349 533.486 318.87 530.047 320.166C526.661 321.472 523.212 322.641 519.7 323.673C516.19 324.71 512.624 325.626 508.991 326.4C505.326 327.207 501.585 327.774 497.805 328.096Z" fill="#F9CB30"/>
<path d="M498.635 327.953L497.805 327.554C498.038 327.243 521.199 296.397 524.805 288.712L525.712 288.985C522.075 296.735 499.59 326.682 498.635 327.953Z" fill="#935B50"/>
<path d="M518.968 272.537C519.949 274.475 520.698 276.483 521.207 278.533C521.727 280.542 522.109 282.571 522.351 284.613C522.6 286.655 522.705 288.705 522.666 290.756C522.652 292.847 522.387 294.932 521.876 296.983C520.891 295.046 520.14 293.038 519.632 290.987C519.111 288.979 518.731 286.949 518.493 284.906C518.249 282.865 518.146 280.814 518.183 278.763C518.199 276.673 518.462 274.588 518.968 272.537Z" fill="#935B50"/>
<path d="M510.253 281.877C511.446 283.683 512.419 285.576 513.158 287.531C513.902 289.442 514.512 291.385 514.983 293.351C515.46 295.316 515.797 297.301 515.99 299.297C516.211 301.331 516.184 303.379 515.907 305.409C514.709 303.605 513.734 301.712 512.997 299.756C512.252 297.845 511.644 295.902 511.177 293.935C510.704 291.97 510.369 289.985 510.175 287.989C509.955 285.955 509.981 283.908 510.253 281.877Z" fill="#935B50"/>
<path d="M506.501 292.751C507.552 294.43 508.381 296.191 508.974 298.007C509.572 299.776 510.035 301.572 510.357 303.386C510.687 305.2 510.873 307.028 510.917 308.86C510.985 310.736 510.804 312.613 510.378 314.459C509.322 312.782 508.491 311.021 507.9 309.204C507.3 307.436 506.84 305.639 506.521 303.824C506.196 302.01 506.011 300.182 505.967 298.35C505.9 296.474 506.079 294.598 506.501 292.751Z" fill="#935B50"/>
<path d="M498.311 303.605C499.366 305.011 500.208 306.512 500.819 308.077C501.429 309.589 501.905 311.134 502.242 312.699C502.586 314.264 502.787 315.847 502.845 317.434C502.928 319.073 502.764 320.714 502.355 322.321C501.295 320.916 500.451 319.415 499.842 317.849C499.231 316.337 498.756 314.792 498.423 313.226C498.084 311.661 497.884 310.078 497.825 308.49C497.743 306.852 497.907 305.212 498.311 303.605Z" fill="#935B50"/>
<path d="M494.113 310.389C495.19 311.608 496.079 312.926 496.76 314.316C497.428 315.642 497.984 317.003 498.424 318.389C498.861 319.765 499.196 321.16 499.429 322.567C499.538 323.276 499.638 323.981 499.704 324.7C499.739 325.432 499.836 326.162 499.997 326.884C499.773 326.788 499.558 326.679 499.353 326.559L498.831 326.141C498.498 325.855 498.192 325.55 497.917 325.227C497.387 324.606 496.917 323.952 496.512 323.273C495.726 321.953 495.108 320.572 494.669 319.153C494.22 317.746 493.93 316.31 493.801 314.862C493.644 313.367 493.749 311.861 494.113 310.389Z" fill="#935B50"/>
<path d="M522.25 293.643C524.009 292.102 525.988 290.73 528.146 289.557C530.226 288.403 532.403 287.365 534.663 286.452C536.919 285.533 539.254 284.743 541.65 284.088C544.111 283.391 546.667 282.93 549.264 282.714C547.509 284.259 545.531 285.632 543.371 286.805C541.292 287.96 539.113 288.996 536.851 289.906C534.592 290.82 532.257 291.609 529.861 292.265C527.4 292.96 524.846 293.423 522.25 293.643Z" fill="#935B50"/>
<path d="M518.176 302.289C520.425 300.819 522.862 299.543 525.448 298.484C527.959 297.431 530.549 296.504 533.203 295.708C535.855 294.906 538.568 294.239 541.325 293.711C544.144 293.146 547.03 292.824 549.934 292.751C547.688 294.225 545.251 295.502 542.665 296.561C540.155 297.614 537.564 298.54 534.907 299.332C532.253 300.13 529.54 300.795 526.783 301.324C523.965 301.888 521.079 302.211 518.176 302.289Z" fill="#935B50"/>
<path d="M510.027 311.897C512.03 310.477 514.229 309.245 516.582 308.224C518.857 307.215 521.214 306.33 523.638 305.575C526.059 304.814 528.542 304.188 531.071 303.7C533.668 303.175 536.331 302.893 539.009 302.858C537.01 304.283 534.811 305.517 532.456 306.536C530.183 307.547 527.824 308.43 525.399 309.181C522.976 309.938 520.491 310.563 517.963 311.051C515.367 311.574 512.704 311.858 510.027 311.897Z" fill="#935B50"/>
<path d="M505.953 319.294C507.697 318.086 509.633 317.067 511.711 316.263C513.698 315.473 515.76 314.81 517.879 314.281C519.995 313.746 522.162 313.349 524.358 313.092C526.639 312.805 528.957 312.761 531.252 312.963C529.511 314.174 527.575 315.195 525.497 315.998C523.51 316.789 521.446 317.45 519.326 317.975C517.208 318.506 515.041 318.902 512.845 319.159C510.565 319.445 508.248 319.491 505.953 319.294Z" fill="#935B50"/>
<path d="M501.879 325.93C503.797 324.459 505.92 323.17 508.207 322.087C510.416 321.019 512.712 320.072 515.082 319.253C517.448 318.428 519.884 317.736 522.37 317.181C524.923 316.588 527.554 316.234 530.21 316.128C528.296 317.603 526.173 318.894 523.884 319.976C521.676 321.045 519.378 321.991 517.007 322.805C514.638 323.626 512.202 324.316 509.716 324.872C507.163 325.464 504.533 325.819 501.879 325.93Z" fill="#935B50"/>
<path d="M526.549 289.963C526.195 287.898 526.259 285.801 526.738 283.752C527.16 281.82 527.823 279.927 528.718 278.101C529.605 276.273 530.724 274.522 532.056 272.875C533.444 271.109 535.183 269.536 537.203 268.215C537.565 270.281 537.504 272.379 537.023 274.429C536.602 276.361 535.936 278.254 535.034 280.077C534.14 281.904 533.019 283.653 531.688 285.301C530.299 287.065 528.564 288.639 526.549 289.963Z" fill="#935B50"/>
<path d="M115.659 327.953L114.828 327.554C115.061 327.243 138.222 296.397 141.827 288.712L142.735 288.985C139.098 296.735 116.614 326.682 115.659 327.953Z" fill="#88983D"/>
<path d="M131.917 272.537C132.898 274.475 133.647 276.483 134.156 278.533C134.676 280.542 135.058 282.571 135.3 284.613C135.549 286.655 135.654 288.705 135.615 290.756C135.601 292.847 135.336 294.932 134.825 296.983C133.84 295.046 133.089 293.038 132.581 290.987C132.06 288.979 131.68 286.949 131.442 284.906C131.199 282.865 131.095 280.814 131.132 278.763C131.149 276.673 131.411 274.588 131.917 272.537Z" fill="#88983D"/>
<path d="M123.202 281.877C124.396 283.683 125.369 285.576 126.107 287.531C126.852 289.442 127.461 291.385 127.932 293.351C128.409 295.316 128.746 297.301 128.94 299.297C129.161 301.331 129.133 303.379 128.856 305.409C127.658 303.605 126.683 301.712 125.946 299.756C125.201 297.845 124.593 295.902 124.126 293.935C123.653 291.97 123.318 289.985 123.124 287.989C122.904 285.955 122.93 283.908 123.202 281.877Z" fill="#88983D"/>
<path d="M119.45 292.751C120.501 294.43 121.33 296.191 121.923 298.007C122.522 299.776 122.984 301.572 123.307 303.386C123.636 305.2 123.823 307.028 123.866 308.86C123.934 310.736 123.754 312.613 123.327 314.459C122.271 312.782 121.441 311.021 120.849 309.204C120.249 307.436 119.789 305.639 119.47 303.824C119.146 302.01 118.96 300.182 118.916 298.35C118.849 296.474 119.028 294.598 119.45 292.751Z" fill="#88983D"/>
<path d="M115.335 303.605C116.39 305.011 117.232 306.512 117.842 308.077C118.453 309.589 118.928 311.134 119.265 312.699C119.609 314.264 119.811 315.847 119.869 317.434C119.952 319.073 119.787 320.714 119.378 322.321C118.318 320.916 117.474 319.415 116.865 317.849C116.254 316.337 115.78 314.792 115.447 313.226C115.108 311.661 114.908 310.078 114.849 308.49C114.767 306.852 114.93 305.212 115.335 303.605Z" fill="#88983D"/>
<path d="M107.062 310.389C108.139 311.608 109.028 312.926 109.709 314.316C110.377 315.642 110.933 317.003 111.374 318.389C111.81 319.765 112.145 321.16 112.379 322.567C112.487 323.276 112.587 323.981 112.654 324.7C112.688 325.432 112.786 326.162 112.946 326.884C112.722 326.788 112.507 326.679 112.302 326.559L111.78 326.141C111.447 325.855 111.142 325.55 110.866 325.227C110.336 324.606 109.866 323.952 109.461 323.273C108.675 321.953 108.058 320.572 107.618 319.153C107.169 317.746 106.879 316.31 106.75 314.862C106.593 313.367 106.699 311.861 107.062 310.389Z" fill="#88983D"/>
<path d="M139.273 293.643C141.032 292.102 143.011 290.73 145.169 289.557C147.249 288.403 149.427 287.365 151.686 286.452C153.943 285.533 156.278 284.743 158.673 284.088C161.134 283.391 163.69 282.93 166.287 282.714C164.532 284.259 162.554 285.632 160.395 286.805C158.315 287.96 156.137 288.996 153.874 289.906C151.616 290.82 149.28 291.609 146.884 292.265C144.424 292.96 141.869 293.423 139.273 293.643Z" fill="#88983D"/>
<path d="M131.125 302.289C133.374 300.819 135.812 299.543 138.397 298.484C140.908 297.431 143.498 296.504 146.153 295.708C148.804 294.906 151.517 294.239 154.274 293.711C157.093 293.146 159.979 292.824 162.883 292.751C160.638 294.225 158.201 295.502 155.614 296.561C153.104 297.614 150.513 298.54 147.856 299.332C145.202 300.13 142.489 300.795 139.732 301.325C136.914 301.888 134.029 302.211 131.125 302.289Z" fill="#88983D"/>
<path d="M127.051 311.897C129.053 310.477 131.253 309.245 133.606 308.224C135.88 307.215 138.237 306.33 140.661 305.575C143.082 304.814 145.566 304.188 148.095 303.7C150.691 303.175 153.355 302.893 156.033 302.858C154.033 304.283 151.834 305.517 149.48 306.536C147.206 307.547 144.848 308.43 142.422 309.181C139.999 309.938 137.515 310.563 134.986 311.051C132.39 311.574 129.728 311.858 127.051 311.897Z" fill="#88983D"/>
<path d="M118.902 319.294C120.647 318.086 122.582 317.067 124.66 316.263C126.647 315.473 128.709 314.81 130.828 314.281C132.944 313.746 135.111 313.349 137.307 313.092C139.588 312.805 141.906 312.761 144.201 312.963C142.46 314.174 140.524 315.195 138.446 315.998C136.459 316.789 134.395 317.45 132.275 317.975C130.158 318.506 127.99 318.902 125.794 319.159C123.514 319.445 121.197 319.491 118.902 319.294Z" fill="#88983D"/>
<path d="M114.828 325.93C116.746 324.459 118.869 323.17 121.157 322.087C123.365 321.019 125.662 320.072 128.031 319.253C130.398 318.428 132.833 317.736 135.319 317.181C137.872 316.588 140.503 316.234 143.159 316.128C141.245 317.603 139.122 318.894 136.833 319.976C134.625 321.045 132.327 321.991 129.956 322.805C127.587 323.626 125.151 324.316 122.665 324.872C120.112 325.464 117.483 325.819 114.828 325.93Z" fill="#88983D"/>
<path d="M139.499 289.963C139.145 287.898 139.208 285.801 139.687 283.752C140.109 281.82 140.772 279.927 141.668 278.101C142.555 276.273 143.673 274.522 145.005 272.875C146.394 271.109 148.132 269.536 150.152 268.215C150.514 270.281 150.453 272.379 149.972 274.429C149.551 276.361 148.885 278.254 147.983 280.077C147.09 281.904 145.969 283.653 144.637 285.301C143.248 287.065 141.513 288.639 139.499 289.963Z" fill="#88983D"/>
<path d="M111.723 329.217L110.754 329.205C110.797 327.089 111.948 277.194 124.435 261.391L125.255 261.805C112.911 277.425 111.734 328.701 111.723 329.217Z" fill="#F9CB30"/>
<path d="M121.053 268.519C121.437 266.204 121.535 263.864 121.344 261.534C121.183 259.264 120.867 257.002 120.399 254.759C119.947 252.525 119.331 250.313 118.607 248.119C117.884 245.911 116.971 243.786 115.995 241.523C115.72 242.085 115.51 242.667 115.37 243.26C115.214 243.842 115.1 244.431 115.029 245.024C114.877 246.188 114.812 247.357 114.832 248.527C114.874 250.828 115.138 253.123 115.62 255.392C116.09 257.654 116.754 259.887 117.608 262.076C118.452 264.32 119.608 266.481 121.053 268.519Z" fill="#F9CB30"/>
<path d="M135.012 236.923C132.866 238.577 131.025 240.467 129.545 242.536C128.104 244.499 126.879 246.558 125.882 248.689C124.876 250.818 124.106 253.013 123.582 255.25C122.996 257.588 122.834 259.981 123.102 262.355C125.255 260.705 127.099 258.815 128.577 256.744C130.02 254.782 131.243 252.723 132.233 250.589C133.232 248.458 133.999 246.262 134.524 244.026C135.108 241.689 135.273 239.297 135.012 236.923Z" fill="#F9CB30"/>
<path d="M145.652 249.639C143.105 251.274 140.7 253.046 138.453 254.941C136.228 256.784 134.105 258.668 132.027 260.563L125.855 266.224C124.82 267.151 123.774 268.064 122.669 268.929C121.576 269.846 120.304 270.614 118.902 271.203C119.757 271.322 120.634 271.305 121.48 271.151C122.333 271.015 123.166 270.805 123.963 270.526C125.523 269.978 127.006 269.299 128.386 268.5C131.064 266.933 133.509 265.125 135.672 263.113C137.823 261.141 139.76 259.027 141.461 256.792C143.213 254.551 144.62 252.149 145.652 249.639Z" fill="#F9CB30"/>
<path d="M145.546 262.355C142.406 263.608 139.411 265.08 136.596 266.754C133.81 268.383 131.13 270.123 128.566 271.97C125.997 273.812 123.549 275.759 121.233 277.804C118.854 279.866 116.711 282.094 114.828 284.461C117.971 283.213 120.967 281.742 123.782 280.066C126.569 278.439 129.248 276.697 131.808 274.847C134.373 273.002 136.82 271.054 139.137 269.009C141.514 266.947 143.659 264.72 145.546 262.355Z" fill="#F9CB30"/>
<path d="M146.064 272.333C142.901 273.509 139.875 274.907 137.022 276.511C134.2 278.07 131.48 279.744 128.873 281.526C126.26 283.303 123.766 285.187 121.399 287.172C118.97 289.174 116.771 291.346 114.828 293.662C117.994 292.49 121.022 291.093 123.875 289.487C126.697 287.929 129.416 286.254 132.019 284.469C134.628 282.689 137.121 280.803 139.488 278.818C141.916 276.816 144.117 274.646 146.064 272.333Z" fill="#F9CB30"/>
<path d="M142.439 282.998C139.291 283.943 136.259 285.119 133.382 286.509C130.541 287.855 127.792 289.321 125.147 290.901C122.497 292.475 119.956 294.164 117.535 295.959C115.049 297.768 112.778 299.759 110.754 301.906C113.904 300.964 116.937 299.79 119.815 298.399C122.656 297.053 125.403 295.586 128.045 294.003C130.692 292.424 133.232 290.735 135.653 288.94C138.138 287.13 140.41 285.141 142.439 282.998Z" fill="#F9CB30"/>
<path d="M144.067 290.735C140.774 291.794 137.603 293.08 134.591 294.58C131.612 296.036 128.726 297.612 125.946 299.3C123.16 300.984 120.485 302.78 117.93 304.683C115.312 306.599 112.91 308.696 110.754 310.949C114.049 309.895 117.222 308.609 120.234 307.108C123.214 305.653 126.098 304.076 128.875 302.384C131.657 300.697 134.331 298.899 136.887 296.997C139.504 295.081 141.906 292.985 144.067 290.735Z" fill="#F9CB30"/>
<path d="M147.075 297.984C143.647 299.258 140.337 300.726 137.17 302.377C134.025 303.986 130.982 305.687 128.016 307.462C125.041 309.227 122.148 311.067 119.307 312.969C116.436 314.853 113.724 316.817 110.754 318.761C112.661 318.51 114.524 318.076 116.3 317.467C118.059 316.88 119.779 316.218 121.45 315.486C124.739 314.016 127.901 312.371 130.915 310.564C133.919 308.764 136.79 306.828 139.514 304.765C142.289 302.695 144.821 300.425 147.075 297.984Z" fill="#F9CB30"/>
<path d="M150.351 305.512C146.646 306.663 143.051 308.028 139.595 309.597C136.16 311.127 132.827 312.769 129.57 314.497C126.312 316.225 123.133 318.042 120.033 319.948C118.483 320.903 116.948 321.876 115.428 322.866C113.958 323.908 112.396 324.864 110.754 325.727C111.783 325.727 112.805 325.587 113.776 325.312C114.75 325.081 115.695 324.801 116.63 324.509C118.495 323.918 120.297 323.241 122.064 322.524C125.573 321.08 128.974 319.476 132.253 317.72C135.53 315.977 138.696 314.103 141.736 312.104C144.831 310.1 147.712 307.896 150.351 305.512Z" fill="#F9CB30"/>
<path d="M115.298 277.375C115.14 274.86 114.674 272.363 113.907 269.92C113.183 267.522 112.288 265.159 111.226 262.842C110.172 260.524 108.95 258.256 107.567 256.05C106.183 253.787 104.52 251.64 102.605 249.639C102.757 252.155 103.221 254.653 103.989 257.096C104.713 259.494 105.61 261.857 106.677 264.172C107.736 266.489 108.959 268.757 110.342 270.962C111.727 273.224 113.387 275.372 115.298 277.375Z" fill="#F9CB30"/>
<path d="M115.959 286.081C115.364 283.578 114.468 281.128 113.281 278.765C112.145 276.44 110.845 274.169 109.388 271.961C107.938 269.751 106.331 267.609 104.573 265.545C102.806 263.426 100.782 261.45 98.5312 259.646C99.1201 262.15 100.015 264.601 101.202 266.965C102.339 269.289 103.641 271.56 105.102 273.766C106.557 275.974 108.166 278.116 109.922 280.179C111.691 282.298 113.713 284.274 115.959 286.081Z" fill="#F9CB30"/>
<path d="M112.351 294.499C111.332 291.959 110.02 289.5 108.432 287.154C106.898 284.84 105.21 282.594 103.374 280.425C101.545 278.252 99.5683 276.161 97.4533 274.161C95.3225 272.108 92.9553 270.219 90.3828 268.519C91.3969 271.06 92.7073 273.52 94.2966 275.866C95.8296 278.18 97.52 280.426 99.3603 282.592C101.194 284.763 103.172 286.853 105.286 288.853C107.418 290.905 109.783 292.795 112.351 294.499Z" fill="#F9CB30"/>
<path d="M110.557 303.786C108.958 301.041 107.082 298.405 104.946 295.904C102.86 293.416 100.635 291.021 98.2705 288.716C95.9135 286.407 93.4199 284.187 90.7897 282.056C88.1491 279.884 85.2875 277.89 82.2344 276.097C83.8267 278.845 85.7016 281.482 87.8398 283.983C89.9252 286.47 92.1519 288.864 94.5199 291.167C96.8826 293.473 99.3779 295.692 102.006 297.824C104.648 299.994 107.508 301.988 110.557 303.786Z" fill="#F9CB30"/>
<path d="M110.087 313.417C108.127 310.807 105.905 308.329 103.443 306.008C101.033 303.695 98.4948 301.485 95.8297 299.378C93.1723 297.265 90.3904 295.251 87.484 293.338C84.5622 291.385 81.4437 289.629 78.1602 288.086C80.1143 290.699 82.335 293.178 84.7996 295.499C87.21 297.811 89.7492 300.02 92.417 302.125C95.0797 304.234 97.8632 306.246 100.768 308.161C103.691 310.112 106.807 311.87 110.087 313.417Z" fill="#F9CB30"/>
<path d="M111.614 319.592C109.44 317.341 107.025 315.245 104.395 313.328C101.828 311.426 99.1418 309.628 96.3479 307.941C93.559 306.249 90.6636 304.672 87.6728 303.217C84.6493 301.716 81.4661 300.432 78.1602 299.378C80.3299 301.633 82.7442 303.73 85.375 305.646C87.942 307.549 90.6294 309.346 93.4264 311.029C96.2186 312.718 99.1154 314.293 102.106 315.749C105.129 317.248 108.311 318.534 111.614 319.592Z" fill="#F9CB30"/>
<path d="M111.59 324.75C108.982 322.695 106.161 320.821 103.157 319.147C100.208 317.471 97.1695 315.921 94.041 314.497C90.9175 313.065 87.7065 311.756 84.4082 310.568C81.0798 309.346 77.6264 308.354 74.0859 307.603C76.6903 309.662 79.5108 311.538 82.5164 313.211C85.4653 314.887 88.505 316.435 91.6353 317.857C94.7622 319.284 97.9742 320.592 101.271 321.781C104.6 323.002 108.052 323.995 111.59 324.75Z" fill="#F9CB30"/>
<path d="M112.118 328.096C108.989 326.371 105.689 324.852 102.251 323.554C98.8662 322.248 95.4147 321.085 91.9069 320.043C88.3996 319 84.8309 318.089 81.2009 317.311C77.5359 316.502 73.7934 315.936 70.0117 315.619C73.1374 317.349 76.4367 318.87 79.8759 320.166C83.2616 321.472 86.7106 322.641 90.2228 323.673C93.7325 324.71 97.299 325.626 100.931 326.4C104.596 327.207 108.338 327.774 112.118 328.096Z" fill="#F9CB30"/>
<path d="M109.311 327.83C108.356 326.559 85.8721 296.612 82.2344 288.862L83.1421 288.589C86.748 296.274 109.909 327.121 110.142 327.431L109.311 327.83Z" fill="#935B50"/>
<path d="M90.0143 272.537C89.034 274.475 88.2845 276.483 87.7757 278.533C87.2554 280.542 86.8734 282.571 86.6315 284.613C86.383 286.655 86.2778 288.705 86.3163 290.756C86.3309 292.847 86.5955 294.932 87.1065 296.983C88.0916 295.046 88.843 293.038 89.3504 290.987C89.8716 288.979 90.2518 286.949 90.4894 284.906C90.7333 282.865 90.8367 280.814 90.7993 278.763C90.7832 276.673 90.5204 274.588 90.0143 272.537Z" fill="#935B50"/>
<path d="M100.342 281.877C99.1482 283.683 98.1753 285.576 97.4369 287.531C96.6923 289.442 96.0829 291.385 95.6118 293.351C95.1344 295.316 94.798 297.301 94.6043 299.297C94.3832 301.331 94.4111 303.379 94.6876 305.409C95.8857 303.605 96.8604 301.712 97.5978 299.756C98.3428 297.845 98.9504 295.902 99.4177 293.935C99.891 291.97 100.226 289.985 100.42 287.989C100.64 285.955 100.614 283.908 100.342 281.877Z" fill="#935B50"/>
<path d="M102.962 292.751C101.91 294.43 101.082 296.191 100.489 298.007C99.89 299.776 99.4279 301.572 99.105 303.386C98.7759 305.2 98.5889 307.028 98.5452 308.86C98.4772 310.736 98.658 312.613 99.0846 314.459C100.14 312.782 100.971 311.021 101.563 309.204C102.162 307.436 102.623 305.639 102.941 303.824C103.266 302.01 103.451 300.182 103.496 298.35C103.562 296.474 103.383 294.598 102.962 292.751Z" fill="#935B50"/>
<path d="M111.235 303.605C110.179 305.011 109.338 306.512 108.727 308.077C108.117 309.589 107.641 311.134 107.304 312.699C106.96 314.264 106.759 315.847 106.701 317.434C106.618 319.073 106.782 320.714 107.191 322.321C108.251 320.916 109.095 319.415 109.704 317.849C110.315 316.337 110.789 314.792 111.123 313.226C111.462 311.661 111.661 310.078 111.721 308.49C111.802 306.852 111.639 305.212 111.235 303.605Z" fill="#935B50"/>
<path d="M112.563 310.389C111.487 311.608 110.598 312.926 109.916 314.316C109.248 315.642 108.692 317.003 108.252 318.389C107.816 319.765 107.48 321.16 107.247 322.567C107.138 323.276 107.038 323.981 106.972 324.7C106.938 325.432 106.84 326.162 106.68 326.884C106.904 326.788 107.119 326.679 107.323 326.559L107.846 326.141C108.179 325.855 108.484 325.55 108.759 325.227C109.29 324.606 109.76 323.952 110.164 323.273C110.951 321.953 111.568 320.572 112.008 319.153C112.456 317.746 112.747 316.31 112.876 314.862C113.032 313.367 112.927 311.861 112.563 310.389Z" fill="#935B50"/>
<path d="M84.8028 293.643C83.0441 292.102 81.0653 290.73 78.9068 289.557C76.8272 288.403 74.6497 287.365 72.39 286.452C70.1336 285.533 67.7987 284.743 65.4028 284.088C62.9418 283.391 60.386 282.93 57.7891 282.714C59.5438 284.259 61.5219 285.632 63.6818 286.805C65.7609 287.96 67.9397 288.996 70.2019 289.906C72.4607 290.82 74.7963 291.609 77.1919 292.265C79.6527 292.96 82.2071 293.423 84.8028 293.643Z" fill="#935B50"/>
<path d="M89.5475 302.289C87.2985 300.819 84.8608 299.543 82.2755 298.484C79.7647 297.431 77.1745 296.504 74.5198 295.708C71.8681 294.906 69.1555 294.239 66.3984 293.711C63.5797 293.146 60.6935 292.824 57.7891 292.751C60.0349 294.225 62.4719 295.502 65.0583 296.561C67.5686 297.614 70.1598 298.54 72.8163 299.332C75.47 300.13 78.1832 300.795 80.9401 301.324C83.7586 301.888 86.6438 302.211 89.5475 302.289Z" fill="#935B50"/>
<path d="M98.9934 311.897C96.991 310.477 94.7916 309.245 92.4383 308.224C90.164 307.215 87.8069 306.33 85.383 305.575C82.962 304.814 80.4783 304.188 77.9496 303.7C75.3532 303.175 72.6895 302.893 70.0117 302.858C72.0109 304.283 74.2099 305.517 76.5645 306.536C78.8383 307.547 81.1964 308.43 83.6222 309.181C86.0452 309.938 88.5294 310.563 91.058 311.051C93.654 311.574 96.3165 311.858 98.9934 311.897Z" fill="#935B50"/>
<path d="M103.459 319.294C101.715 318.086 99.7789 317.067 97.7017 316.263C95.7144 315.473 93.6519 314.81 91.5336 314.281C89.4173 313.746 87.2505 313.349 85.0541 313.092C82.7735 312.805 80.4552 312.761 78.1602 312.963C79.9016 314.174 81.8371 315.195 83.9156 315.998C85.9025 316.789 87.966 317.45 90.0861 317.975C92.2038 318.506 94.3709 318.902 96.567 319.159C98.847 319.445 101.164 319.491 103.459 319.294Z" fill="#935B50"/>
<path d="M106.491 325.93C104.573 324.459 102.45 323.17 100.162 322.087C97.9541 321.019 95.6573 320.072 93.2878 319.253C90.9213 318.428 88.486 317.736 85.9996 317.181C83.4466 316.588 80.8157 316.234 78.1602 316.128C80.0743 317.603 82.1972 318.894 84.4858 319.976C86.6936 321.045 88.9916 321.991 91.3633 322.805C93.7318 323.626 96.1676 324.316 98.6538 324.872C101.207 325.464 103.836 325.819 106.491 325.93Z" fill="#935B50"/>
<path d="M84.9719 289.963C85.3258 287.898 85.262 285.801 84.7831 283.752C84.3615 281.82 83.6981 279.927 82.8028 278.101C81.9159 276.273 80.7976 274.522 79.4653 272.875C78.0768 271.109 76.3385 269.536 74.3184 268.215C73.9567 270.281 74.0174 272.379 74.4982 274.429C74.919 276.361 75.5854 278.254 76.4871 280.077C77.3808 281.904 78.5019 283.653 79.8335 285.301C81.2227 287.065 82.9576 288.639 84.9719 289.963Z" fill="#935B50"/>
<path d="M210.074 287.483C166.442 250.581 161.65 116.979 254.656 127.338C303.613 132.791 395.409 117.689 457.242 100.829C517.367 84.4351 480.913 209.43 412.66 260.973C344.406 312.516 253.705 324.385 210.074 287.483Z" fill="#FAA900"/>
<path d="M188.164 303.77C211.44 323.457 247.475 331.26 289.633 325.743C331.713 320.237 374.873 302.112 411.162 274.707C438.446 254.103 464.111 219.89 479.816 183.189C494.818 148.128 497.821 117.982 487.651 104.513C481.967 96.9852 472.24 94.8394 459.52 98.3078L459.871 99.1286C472.222 95.7612 481.257 97.7232 486.721 104.961C496.73 118.216 493.69 148.084 478.788 182.908C463.138 219.483 437.579 253.563 410.416 274.077C374.283 301.363 331.325 319.408 289.458 324.887C247.667 330.356 211.974 322.644 188.952 303.174L188.164 303.77Z" fill="#FAA900"/>
<path d="M265.966 186.18C268.242 189.808 269.042 193.914 268.254 197.924C268.192 198.308 268.021 198.676 267.754 198.998C267.486 199.321 267.13 199.591 266.711 199.786C266.411 199.943 266.047 200.001 265.694 199.949C264.377 199.702 263.68 197.389 263.842 194.113C263.206 195.417 262.724 196.765 262.402 198.141C261.546 201.805 262.348 203.492 261.065 204.224C259.593 205.064 256.172 204.194 254.482 202.415C252.616 200.451 253.308 197.708 254.767 192.301C255.324 190.234 256.011 188.191 256.826 186.18H265.966Z" fill="#DD765E"/>
<path d="M550.152 330H62.85C62.5883 330 62.3373 329.917 62.1523 329.769C61.9672 329.621 61.8633 329.421 61.8633 329.211C61.8633 329.002 61.9672 328.802 62.1523 328.654C62.3373 328.506 62.5883 328.423 62.85 328.423H550.152C550.414 328.423 550.665 328.506 550.85 328.654C551.035 328.802 551.139 329.002 551.139 329.211C551.139 329.421 551.035 329.621 550.85 329.769C550.665 329.917 550.414 330 550.152 330Z" fill="#935B50"/>
<path d="M278.049 305.011L276.285 313.086C276.285 313.086 265.28 325.139 257.426 314.769L260.019 305.011H278.049Z" fill="#F9977A"/>
<path d="M306.325 305.098L302.242 322.072C302.242 322.072 315.727 326.711 323.581 316.34L322.594 305.483L306.325 305.098Z" fill="#F9977A"/>
<path d="M324.974 179.464L326.738 307.131C326.706 307.585 326.459 308.012 326.045 308.324C325.632 308.637 325.085 308.811 324.516 308.811H303.84C303.541 308.811 303.246 308.763 302.971 308.67C302.696 308.576 302.448 308.44 302.24 308.268C302.033 308.097 301.871 307.894 301.763 307.671C301.656 307.448 301.606 307.211 301.616 306.972L296.641 191.013L280.367 307.347C280.275 307.758 280.005 308.129 279.605 308.397C279.205 308.664 278.699 308.811 278.178 308.811H259.651C259.333 308.811 259.02 308.756 258.731 308.652C258.442 308.547 258.184 308.394 257.975 308.203C257.767 308.012 257.611 307.787 257.52 307.544C257.429 307.302 257.403 307.046 257.446 306.795L271.115 179.464L324.974 179.464Z" fill="#F9CB30"/>
<path d="M310.391 177.839L311.117 194.208L311.764 210.578L313.053 243.319L314.169 276.064L314.724 292.437L315.198 308.811L314.47 292.442L313.824 276.072L312.535 243.331L311.42 210.587L310.865 194.214L310.391 177.839Z" fill="#E6952A"/>
<path d="M287.098 177.839L285.043 194.222L282.906 210.597L278.631 243.347L274.183 276.083L271.955 292.45L269.648 308.811L271.703 292.429L273.839 276.053L278.116 243.304L282.564 210.568L284.791 194.2L287.098 177.839Z" fill="#E6952A"/>
<path d="M314.476 179.464C314.622 180.836 314.876 182.2 315.236 183.546C315.576 184.887 316.081 186.198 316.745 187.459C317.372 188.724 318.292 189.882 319.456 190.875C320.643 191.866 322.158 192.567 323.825 192.896C322.96 192.801 322.118 192.603 321.327 192.309C320.541 191.992 319.816 191.585 319.175 191.102C317.924 190.109 316.936 188.925 316.268 187.621C315.608 186.329 315.131 184.983 314.846 183.606C314.549 182.239 314.425 180.851 314.476 179.464Z" fill="#E6952A"/>
<path d="M279.425 181.877C278.716 183.945 277.622 185.916 276.181 187.723C275.449 188.638 274.537 189.45 273.478 190.129C272.933 190.464 272.315 190.714 271.655 190.867C270.993 191.006 270.295 190.985 269.648 190.808C270.295 190.881 270.953 190.836 271.574 190.675C272.195 190.514 272.762 190.241 273.23 189.879C274.211 189.187 275.06 188.384 275.748 187.495C276.475 186.614 277.134 185.7 277.722 184.755C278.326 183.814 278.884 182.851 279.425 181.877Z" fill="#E6952A"/>
<path d="M276.317 313.086C276.317 313.086 285.953 322.706 280.612 328.375C280.332 328.668 279.97 328.905 279.555 329.067C279.141 329.229 278.684 329.311 278.223 329.308L230.451 329.1C230.232 329.099 230.016 329.061 229.817 328.988C229.618 328.915 229.44 328.81 229.295 328.679C229.15 328.547 229.042 328.393 228.977 328.226C228.912 328.059 228.891 327.883 228.917 327.709C229.191 325.731 246.378 322.385 257.458 314.769C257.458 314.769 271.82 318.068 276.317 313.086Z" fill="#935B50"/>
<path d="M304.076 313.086C304.076 313.086 294.44 322.706 299.781 328.375C300.061 328.668 300.423 328.905 300.837 329.067C301.252 329.229 301.708 329.311 302.17 329.308L349.942 329.1C350.161 329.099 350.377 329.061 350.576 328.988C350.775 328.915 350.953 328.81 351.098 328.679C351.242 328.547 351.351 328.393 351.416 328.226C351.481 328.059 351.501 327.883 351.476 327.709C351.201 325.731 334.014 322.385 322.934 314.769C322.934 314.769 308.572 318.068 304.076 313.086Z" fill="#935B50"/>
<path d="M318.778 79.0658L318.116 86.7269C317.901 89.8347 318.099 92.952 318.706 96.0264C319.404 99.9011 318.093 103.29 315.22 104.94C313.882 105.681 312.296 106.084 310.669 106.098V113.804C311.196 119.981 308.491 125.098 304.891 125.902C300.725 126.832 293.313 122.441 290.822 113.804V95.7796C290.822 95.7796 282.713 94.5856 287.408 88.19C290.198 84.4568 291.843 80.2491 292.209 75.9106L300.959 70.6235L318.778 79.0658Z" fill="#DD765E"/>
<path d="M298.762 82.363C298.631 82.3632 298.504 82.3288 298.4 82.2652C298.296 82.2016 298.222 82.1123 298.188 82.0113C298.154 81.9103 298.163 81.8033 298.214 81.7068C298.264 81.6104 298.353 81.53 298.467 81.4782C301.696 80.0034 305.181 81.4089 305.328 81.4682C305.467 81.526 305.572 81.6255 305.619 81.7449C305.667 81.8643 305.653 81.9939 305.581 82.1053C305.51 82.2167 305.386 82.3009 305.236 82.3394C305.087 82.3779 304.925 82.3675 304.785 82.3107C304.755 82.2983 301.716 81.0862 299.054 82.3007C298.965 82.3415 298.864 82.363 298.762 82.363Z" fill="#1E1D22"/>
<path d="M310.984 82.363C310.853 82.3632 310.726 82.3288 310.622 82.2652C310.519 82.2016 310.444 82.1123 310.411 82.0113C310.377 81.9103 310.386 81.8033 310.436 81.7068C310.487 81.6104 310.576 81.53 310.689 81.4782C313.919 80.0034 317.404 81.4089 317.55 81.4682C317.689 81.526 317.794 81.6255 317.842 81.7449C317.889 81.8643 317.876 81.9939 317.804 82.1053C317.732 82.2167 317.608 82.3009 317.459 82.3394C317.31 82.3779 317.148 82.3675 317.008 82.3107C316.977 82.2983 313.939 81.0862 311.277 82.3007C311.188 82.3415 311.087 82.363 310.984 82.363Z" fill="#1E1D22"/>
<path d="M316.183 88.5881C316.644 88.5753 317.08 88.4199 317.401 88.1548C317.721 87.8897 317.9 87.5355 317.9 87.1668C317.9 86.7982 317.721 86.444 317.401 86.1789C317.08 85.9137 316.644 85.7584 316.183 85.7456C315.722 85.7584 315.285 85.9137 314.964 86.1789C314.644 86.444 314.465 86.7982 314.465 87.1668C314.465 87.5355 314.644 87.8897 314.964 88.1548C315.285 88.4199 315.722 88.5753 316.183 88.5881Z" fill="#1E1D22"/>
<path d="M303.96 88.5026C304.421 88.4898 304.858 88.3345 305.178 88.0694C305.499 87.8043 305.678 87.45 305.678 87.0814C305.678 86.7127 305.499 86.3585 305.178 86.0934C304.858 85.8282 304.421 85.6729 303.96 85.6602C303.499 85.6729 303.062 85.8282 302.742 86.0934C302.421 86.3585 302.242 86.7127 302.242 87.0814C302.242 87.45 302.421 87.8043 302.742 88.0694C303.062 88.3345 303.499 88.4898 303.96 88.5026Z" fill="#1E1D22"/>
<path d="M311.863 93.7852L311.707 92.9981C311.912 92.9853 312.11 92.9299 312.28 92.8374C312.45 92.7448 312.587 92.6184 312.677 92.4706C313.547 91.032 311.322 87.3038 310.391 85.9885L311.26 85.5957C311.628 86.1171 314.826 90.7478 313.575 92.8171C313.415 93.0806 313.174 93.3075 312.875 93.4767C312.575 93.6459 312.227 93.752 311.863 93.7852Z" fill="#DD765E"/>
<path d="M305.649 99.2752C307.53 99.2752 309.055 98.3017 309.055 97.1007C309.055 95.8998 307.53 94.9263 305.649 94.9263C303.767 94.9263 302.242 95.8998 302.242 97.1007C302.242 98.3017 303.767 99.2752 305.649 99.2752Z" fill="#FAA900"/>
<path d="M311.739 106.098C311.739 106.098 305.336 105.836 302.242 103.494C302.242 103.494 306.19 109.765 311.739 110.617V106.098Z" fill="#DD765E"/>
<path d="M323.552 76.7636C323.552 76.7636 323.445 73.2674 315.763 71.7325C308.08 70.1975 306.586 66.7866 302.158 67.7246C299.299 68.4363 296.783 69.8359 294.956 71.7325C294.956 71.7325 281.049 70.0321 287.789 87.7664C287.789 87.7664 292.822 92.454 293.355 88.2756C293.889 84.0971 295.063 76.9342 297.944 75.0581C300.824 73.1821 305.306 75.0581 307.013 76.0814C308.72 77.1047 319.39 83.1591 320.457 82.6475C321.524 82.1359 325.792 81.1126 323.552 76.7636Z" fill="#1E1D22"/>
<path d="M347.059 137.916L354.165 131.838C354.165 131.838 353.292 128.45 360.897 128.45C368.502 128.45 370.497 126.856 370.497 126.856C370.497 126.856 372.616 126.757 371.37 128.351C370.123 129.945 366.632 131.141 366.133 131.24C365.635 131.34 371.763 132.385 371.763 132.385C371.763 132.385 377.229 129.048 378.102 131.738C378.102 131.738 380.845 131.139 380.845 132.385C380.845 132.385 383.089 132.834 382.341 133.93C382.341 133.93 383.644 134.727 382.494 135.425C381.344 136.122 374.362 138.912 374.362 138.912C374.362 138.912 359.401 138.215 358.279 138.912C357.157 139.61 353.791 143.994 353.791 143.994L347.059 137.916Z" fill="#DD765E"/>
<path d="M366.263 135.424C365.144 134.764 364.052 134.117 362.908 133.531C362.339 133.235 361.749 132.97 361.155 132.707C360.545 132.458 359.92 132.234 359.281 132.037C360.682 132.156 362.023 132.549 363.188 133.182C363.774 133.485 364.329 133.826 364.846 134.201C365.369 134.569 365.844 134.979 366.263 135.424Z" fill="#DD765E"/>
<path d="M378.61 131.738C377.506 132.28 376.353 132.756 375.161 133.161C374.566 133.363 373.971 133.563 373.36 133.734C372.752 133.916 372.132 134.072 371.504 134.204C372.053 133.927 372.62 133.672 373.201 133.441C373.774 133.201 374.364 132.991 374.954 132.781C376.139 132.362 377.361 132.013 378.61 131.738Z" fill="#DD765E"/>
<path d="M379.982 132.385C378.661 133.117 377.286 133.786 375.866 134.387C375.156 134.686 374.447 134.984 373.718 135.254C372.992 135.528 372.261 135.796 371.504 136.023C372.159 135.643 372.842 135.305 373.529 134.973C374.213 134.636 374.916 134.328 375.62 134.021C377.032 133.407 378.488 132.861 379.982 132.385Z" fill="#DD765E"/>
<path d="M382.934 133.93C381.801 134.586 380.614 135.18 379.38 135.706C378.764 135.968 378.148 136.229 377.512 136.461C376.879 136.698 376.243 136.928 375.578 137.118C376.14 136.777 376.729 136.476 377.322 136.181C377.912 135.882 378.522 135.611 379.132 135.342C380.358 134.802 381.628 134.33 382.934 133.93Z" fill="#DD765E"/>
<path d="M372.167 137.118C371.333 136.678 370.527 136.204 369.754 135.698C368.98 135.199 368.227 134.707 367.43 134.204C367.921 134.314 368.391 134.477 368.828 134.688C369.266 134.89 369.684 135.12 370.078 135.374C370.472 135.626 370.845 135.898 371.195 136.188C371.552 136.475 371.877 136.786 372.167 137.118Z" fill="#DD765E"/>
<path d="M353.838 144.592L345.609 136.92L339.999 142.001C339.999 142.001 337.381 118.985 328.28 115.398C319.179 111.811 312.945 109.918 312.945 109.918C313.562 115.773 307.788 120.2 302.535 120.031C297.186 119.86 291.804 114.907 293.247 109.021C288.011 109.63 274.173 109.217 268.686 117.889C263.076 126.757 253.352 155.054 253.352 155.054L255.166 187.327H268.317L270.93 155.352L278.161 138.614L271.678 179.465C280.185 182.389 289.348 183.897 298.608 183.897C307.868 183.897 317.03 182.389 325.537 179.465V169.052C325.537 169.052 336.196 167.259 339.936 163.672C343.677 160.085 353.838 144.592 353.838 144.592Z" fill="#E7EB26"/>
<path d="M326.688 152.538C328.437 150.669 330.339 148.905 332.227 147.133C333.198 146.265 334.153 145.386 335.14 144.53C336.127 143.674 337.121 142.822 338.157 142.001C337.283 142.936 336.364 143.841 335.44 144.741C334.515 145.64 333.558 146.517 332.618 147.406C330.683 149.146 328.761 150.894 326.688 152.538Z" fill="black"/>
<path d="M323.374 169.053C322.959 165.674 322.74 162.281 322.652 158.886C322.561 155.49 322.639 152.092 322.81 148.698C323.023 145.305 323.397 141.921 323.934 138.547C324.498 135.179 325.31 131.841 326.366 128.55C325.966 130.218 325.498 131.872 325.213 133.553C324.842 135.222 324.597 136.906 324.331 138.586C323.874 141.955 323.5 145.331 323.328 148.718C323.114 152.102 323.044 155.492 323.049 158.882C323.052 160.577 323.082 162.272 323.14 163.968C323.177 165.663 323.255 167.358 323.374 169.053Z" fill="black"/>
<path d="M277.797 138.613C278.043 137.826 278.381 137.059 278.807 136.323C279.02 135.957 279.234 135.592 279.485 135.24C279.725 134.881 279.994 134.535 280.29 134.204C280.175 134.6 280.027 134.99 279.849 135.372C279.684 135.755 279.483 136.124 279.28 136.494C278.87 137.236 278.374 137.945 277.797 138.613Z" fill="black"/>
<path d="M269.581 155.352C267.597 154.856 265.543 154.56 263.467 154.472C262.439 154.441 261.41 154.491 260.394 154.621C259.372 154.771 258.376 155.016 257.426 155.352C258.301 154.868 259.278 154.515 260.311 154.308C261.35 154.108 262.419 154.024 263.487 154.058C264.549 154.096 265.603 154.226 266.631 154.445C267.655 154.653 268.646 154.958 269.581 155.352Z" fill="black"/>
<path d="M282.138 129.746C282.324 128.323 282.315 126.888 282.111 125.466C281.923 124.055 281.486 122.673 280.812 121.36C280.162 120.043 279.197 118.839 277.97 117.817C276.733 116.787 275.299 115.92 273.723 115.249C275.41 115.787 276.95 116.584 278.256 117.594C279.568 118.616 280.601 119.844 281.292 121.201C281.965 122.555 282.375 123.984 282.507 125.437C282.646 126.88 282.522 128.331 282.138 129.746Z" fill="black"/>
<path d="M317.55 173.387C314.485 173.38 311.428 173.138 308.421 172.665C305.403 172.201 302.45 171.5 299.605 170.572C296.756 169.63 294.093 168.366 291.695 166.817C290.518 166.026 289.43 165.153 288.444 164.209C287.492 163.248 286.656 162.217 285.945 161.131C287.512 163.223 289.546 165.066 291.947 166.569C293.146 167.311 294.406 167.988 295.716 168.598C297.04 169.191 298.405 169.723 299.806 170.19C302.615 171.122 305.526 171.847 308.502 172.354C309.988 172.617 311.486 172.834 312.998 173.003C314.506 173.182 316.023 173.326 317.55 173.387Z" fill="black"/>
<path d="M375.977 125.502C389.698 125.502 400.821 116.613 400.821 105.647C400.821 94.6815 389.698 85.792 375.977 85.792C362.256 85.792 351.133 94.6815 351.133 105.647C351.133 116.613 362.256 125.502 375.977 125.502Z" fill="#C0D6F2"/>
<path d="M394.903 94.3602C396.84 96.5987 398.181 99.1319 398.841 101.802C399.501 104.472 399.466 107.223 398.739 109.882C398.724 109.889 398.709 109.898 398.693 109.905C398.011 110.196 396.548 110.42 395.834 109.905C395.445 109.417 395.146 108.886 394.947 108.329C394.59 107.582 394.515 107.339 394.159 107.148C393.706 106.905 393.325 107.031 393.075 106.754C392.849 106.505 393.066 106.304 392.976 105.887C392.768 105.331 392.312 104.855 391.695 104.548C390.848 104.003 390.411 104.061 390.26 103.689C390.165 103.456 390.271 103.274 390.709 102.5C391.055 101.967 391.352 101.414 391.596 100.846C391.678 100.165 391.507 99.4797 391.103 98.8764C390.466 97.4137 390.711 97.1493 390.216 95.6466C389.218 92.6198 387.486 91.4549 387.85 91.1564C388.299 90.7886 391.738 91.8961 394.903 94.3602Z" fill="#BA8F4B"/>
<path d="M354.694 95.4006C356.411 93.9888 358.049 93.2057 358.508 93.4407C358.708 93.5431 358.577 93.7836 358.902 94.386C359.213 94.9625 359.972 95.9246 360.874 95.9615C361.278 95.9781 361.464 95.7988 362.746 94.9374C364.656 93.6547 364.984 93.5536 365.309 93.5982C366.142 93.7124 366.805 94.7589 366.492 95.1738C366.185 95.5808 365.078 95.1957 364.718 95.6464C364.614 95.8903 364.616 96.155 364.723 96.3979C364.831 96.6408 365.037 96.8478 365.309 96.9856C365.638 97.1031 365.996 97.1572 366.356 97.1435C366.716 97.1298 367.066 97.0487 367.379 96.9068C368.228 96.6869 368.958 96.2423 369.449 95.6464C369.976 94.9516 369.816 94.4067 370.238 94.3072C370.62 94.2171 371.16 94.5677 371.42 94.9374C371.87 95.5758 371.323 96.04 371.716 96.513C372.222 97.1222 373.495 96.7916 373.688 97.222C373.866 97.6209 372.941 98.282 372.209 98.6399C371.302 99.083 370.994 98.9127 369.843 99.2701C368.122 99.8047 368.238 100.364 366.689 100.767C365.344 101.117 364.896 100.788 364.323 101.24C363.854 101.61 363.78 102.196 363.633 103.366C363.517 104.297 363.652 104.519 363.732 104.627C363.942 104.879 364.243 105.074 364.595 105.187C364.947 105.299 365.334 105.324 365.703 105.257C366.096 105.174 366.36 104.965 366.886 104.548C367.49 104.07 367.49 103.887 367.872 103.76C368.459 103.565 368.737 103.904 369.252 103.76C369.937 103.569 370.21 102.754 370.533 101.791C370.86 100.819 370.789 100.411 371.223 100.215C371.578 100.055 371.799 100.249 372.603 100.215C373.216 100.155 373.814 100.023 374.378 99.8215C375.085 99.6222 375.81 99.4643 376.546 99.3489C377.614 99.2432 378.698 99.3515 379.7 99.664C380.982 99.9248 382.144 100.471 383.052 101.239C383.544 101.629 383.93 102.097 384.184 102.612C384.439 103.127 384.557 103.679 384.53 104.233C384.401 105.113 383.875 105.925 383.052 106.517C381.91 107.314 381.146 106.944 380.095 107.699C379.256 108.372 378.763 109.271 378.715 110.22C378.687 110.629 378.734 111.196 380.292 113.765C381.504 115.763 381.821 115.99 381.967 116.837C382.131 117.784 382.071 119.444 380.982 119.909C380.379 120.167 380.084 119.792 377.729 119.594C376.847 119.501 375.956 119.475 375.068 119.515C373.731 119.588 373.569 119.776 372.8 119.673C371.952 119.528 371.168 119.201 370.533 118.728C369.557 118.091 369.65 117.804 368.66 117.152C368.054 116.774 367.392 116.457 366.689 116.207C365.249 115.624 364.864 115.651 363.633 115.104C362.56 114.627 361.731 114.249 361.761 113.765C361.809 113.583 361.917 113.414 362.073 113.276C362.228 113.138 362.427 113.035 362.648 112.977C363.387 112.748 363.792 113.191 364.422 112.977C364.729 112.837 364.977 112.628 365.135 112.376C365.292 112.123 365.353 111.839 365.309 111.559C365.254 111.11 364.91 110.538 364.521 110.535C364.027 110.531 364.053 111.446 363.141 111.874C362.732 112.026 362.282 112.091 361.833 112.063C361.385 112.036 360.952 111.916 360.578 111.717C359.907 111.386 359.124 110.678 359.296 110.062C359.428 109.592 360.013 109.543 360.183 108.959C360.296 108.575 360.204 108.043 359.888 107.935C359.293 107.733 358.046 109.076 357.423 109.747C356.399 110.851 355.887 111.403 355.748 112.189C355.578 113.147 356.007 113.785 355.452 114.237C355.294 114.354 355.107 114.442 354.903 114.497C354.699 114.551 354.483 114.57 354.269 114.553C354.062 114.535 353.862 114.485 353.679 114.406C351.846 111.423 350.978 108.12 351.155 104.8C351.333 101.479 352.55 98.2478 354.694 95.4006Z" fill="#BA8F4B"/>
<path d="M395.317 90.8607C397.78 90.5891 400.267 90.4948 402.751 90.5792C405.307 90.5896 407.82 91.1074 410.064 92.0859C410.653 92.3775 411.159 92.7651 411.548 93.2234C411.937 93.6816 412.201 94.2003 412.322 94.7456C412.469 95.8331 412.192 96.9304 411.53 97.8876C410.282 99.6794 408.641 101.277 406.685 102.605C402.889 105.23 398.72 107.489 394.264 109.336C389.851 111.203 385.283 112.824 380.591 114.189C375.899 115.552 371.098 116.661 366.22 117.509C361.327 118.386 356.328 118.83 351.314 118.833C348.765 118.844 346.229 118.556 343.785 117.979C342.512 117.667 341.338 117.136 340.348 116.424C339.84 116.042 339.449 115.571 339.204 115.05C338.958 114.528 338.865 113.968 338.931 113.413C339.096 112.371 339.581 111.377 340.342 110.521C341.044 109.683 341.854 108.908 342.76 108.207C344.542 106.82 346.496 105.582 348.593 104.512C346.637 105.713 344.813 107.045 343.141 108.494C342.318 109.21 341.593 109.994 340.977 110.832C340.353 111.625 339.982 112.527 339.896 113.461C339.866 113.895 339.961 114.328 340.175 114.728C340.388 115.127 340.713 115.483 341.125 115.766C342.019 116.345 343.058 116.763 344.172 116.992C346.506 117.463 348.912 117.669 351.318 117.603C356.206 117.482 361.065 116.962 365.82 116.05C370.604 115.181 375.313 114.064 379.916 112.708C384.534 111.385 389.037 109.818 393.395 108.018C397.766 106.273 401.883 104.149 405.673 101.684C407.54 100.488 409.135 99.0438 410.387 97.414C410.979 96.6516 411.264 95.7623 411.204 94.8662C411.126 94.4335 410.935 94.0186 410.644 93.6484C410.353 93.2781 409.969 92.9608 409.515 92.7167C407.456 91.7066 405.119 91.115 402.708 90.9936C400.252 90.8051 397.782 90.7607 395.317 90.8607Z" fill="#F9E0C0"/>
<path d="M367.135 118.479L364.594 118.875L365.27 116.135L363.355 113.798L365.896 113.402L366.986 114.299L372.456 113.434L368.078 108.855L370.619 108.458L376.283 112.837L380.714 112.146C381.219 112.068 381.743 112.154 382.169 112.383C382.596 112.613 382.891 112.969 382.989 113.373C383.088 113.776 382.982 114.195 382.695 114.536C382.408 114.877 381.963 115.113 381.458 115.193L377.071 115.876L373.867 121.642L371.326 122.038L373.21 116.478L367.726 117.333L367.135 118.479Z" fill="#E7EB26"/>
<path d="M207.801 191.064H177.856C176.268 191.064 174.745 191.569 173.621 192.466C172.498 193.364 171.867 194.581 171.867 195.851L171.867 226.976H177.856V198.244C177.856 197.609 178.172 197 178.733 196.552C179.295 196.103 180.056 195.851 180.851 195.851H204.806C205.6 195.851 206.362 196.103 206.923 196.552C207.485 197 207.801 197.609 207.801 198.244V226.976H213.789L213.79 195.851C213.79 195.222 213.635 194.6 213.334 194.019C213.033 193.438 212.592 192.911 212.035 192.466C211.479 192.022 210.819 191.669 210.093 191.429C209.366 191.188 208.587 191.064 207.801 191.064Z" fill="#935B50"/>
<path d="M162.357 315.532L162.346 315.541C161.606 315.6 160.919 315.876 160.42 316.317C159.921 316.757 159.644 317.33 159.645 317.925V322.711C159.645 324.616 160.592 326.444 162.277 327.791C163.963 329.138 166.25 329.895 168.634 329.895C171.018 329.895 173.304 329.138 174.99 327.791C176.676 326.444 177.623 324.616 177.623 322.711V317.925C177.62 317.293 177.305 316.689 176.746 316.242C176.188 315.796 175.431 315.544 174.641 315.541H162.663C162.561 315.533 162.459 315.53 162.357 315.532Z" fill="#935B50"/>
<path d="M211.248 315.532L211.236 315.541C210.496 315.6 209.81 315.876 209.311 316.317C208.811 316.757 208.535 317.33 208.535 317.925V322.711C208.535 324.616 209.482 326.444 211.168 327.791C212.854 329.138 215.14 329.895 217.524 329.895C219.909 329.895 222.195 329.138 223.881 327.791C225.567 326.444 226.514 324.616 226.514 322.711V317.925C226.511 317.293 226.195 316.689 225.637 316.242C225.078 315.796 224.321 315.544 223.531 315.541H211.554C211.452 315.533 211.35 315.53 211.248 315.532Z" fill="#935B50"/>
<path d="M156.393 224.593C154.017 224.601 151.741 225.359 150.061 226.702C148.381 228.045 147.432 229.863 147.422 231.762V313.138C147.431 315.039 148.378 316.861 150.058 318.207C151.738 319.553 154.015 320.315 156.393 320.327H228.26C230.641 320.316 232.921 319.555 234.605 318.209C236.289 316.863 237.241 315.041 237.255 313.138V231.762C237.239 229.862 236.286 228.042 234.602 226.7C232.917 225.357 230.639 224.6 228.26 224.593H156.393Z" fill="#BA8F4B"/>
<path d="M190.621 238.923C189.831 238.934 189.078 239.196 188.528 239.65C187.978 240.103 187.676 240.713 187.687 241.345V303.556C187.687 304.191 188.002 304.8 188.564 305.248C189.125 305.697 189.887 305.949 190.681 305.949C191.475 305.949 192.237 305.697 192.799 305.248C193.36 304.8 193.676 304.191 193.676 303.556V241.345C193.682 241.023 193.607 240.704 193.454 240.406C193.301 240.109 193.074 239.839 192.786 239.615C192.504 239.387 192.166 239.208 191.794 239.089C191.421 238.97 191.022 238.914 190.621 238.923ZM166.375 248.495C165.635 248.563 164.954 248.849 164.463 249.297C163.972 249.744 163.707 250.322 163.719 250.917V293.984C163.721 294.619 164.038 295.227 164.601 295.675C165.163 296.124 165.925 296.376 166.72 296.376C167.514 296.376 168.276 296.124 168.839 295.675C169.401 295.227 169.718 294.619 169.72 293.984V250.917C169.726 250.577 169.641 250.239 169.472 249.926C169.303 249.614 169.053 249.333 168.738 249.103C168.422 248.872 168.047 248.698 167.64 248.593C167.232 248.488 166.801 248.455 166.375 248.495ZM213.954 248.495C213.214 248.563 212.532 248.849 212.041 249.297C211.55 249.744 211.285 250.322 211.298 250.917V293.984C211.299 294.619 211.616 295.228 212.179 295.677C212.741 296.125 213.504 296.377 214.298 296.377C215.093 296.377 215.856 296.125 216.418 295.677C216.981 295.228 217.297 294.619 217.299 293.984V250.917C217.305 250.577 217.22 250.239 217.051 249.926C216.882 249.614 216.631 249.333 216.317 249.103C216.001 248.872 215.626 248.698 215.218 248.593C214.811 248.488 214.379 248.455 213.954 248.495Z" fill="#47371C"/>
<path d="M395.999 255.169C393.833 255.176 391.757 255.864 390.222 257.086C388.687 258.308 387.817 259.964 387.801 261.695V270.408H393.263V261.695C393.255 261.406 393.32 261.119 393.455 260.851C393.589 260.583 393.791 260.339 394.046 260.135C394.302 259.93 394.607 259.769 394.943 259.662C395.278 259.554 395.638 259.502 395.999 259.508H412.352C412.713 259.503 413.07 259.556 413.404 259.664C413.738 259.773 414.041 259.934 414.295 260.138C414.548 260.343 414.748 260.586 414.88 260.854C415.013 261.121 415.077 261.408 415.067 261.695V270.408H420.518V261.695C420.509 259.967 419.646 258.311 418.116 257.089C416.587 255.867 414.515 255.177 412.352 255.169H395.999Z" fill="#E7EB26"/>
<path d="M359.298 268.222C357.133 268.233 355.061 268.926 353.532 270.151C352.003 271.377 351.141 273.035 351.133 274.765V322.686C351.142 324.414 352.005 326.07 353.534 327.293C355.064 328.515 357.136 329.205 359.298 329.212H451.967C454.132 329.205 456.207 328.516 457.74 327.294C459.273 326.072 460.141 324.416 460.155 322.686V274.765C460.142 273.033 459.275 271.375 457.742 270.15C456.21 268.925 454.135 268.232 451.967 268.222H359.298Z" fill="#BA8F4B"/>
<path d="M371.504 268.222V329.212H382.406V268.222H371.504ZM431.455 268.222V329.212H442.368V268.222H431.455Z" fill="#E7EB26"/>
<path d="M394.59 292.182C394.231 292.182 393.876 292.238 393.545 292.348C393.214 292.458 392.913 292.619 392.661 292.822C392.408 293.026 392.209 293.267 392.074 293.533C391.939 293.798 391.872 294.083 391.875 294.369V303.082C391.875 303.367 391.945 303.649 392.081 303.913C392.217 304.176 392.417 304.415 392.669 304.617C392.921 304.818 393.221 304.978 393.55 305.087C393.88 305.196 394.233 305.252 394.59 305.251H416.394C416.753 305.254 417.108 305.2 417.441 305.093C417.773 304.985 418.075 304.825 418.329 304.623C418.584 304.422 418.786 304.182 418.923 303.917C419.061 303.652 419.131 303.368 419.131 303.082V294.369C419.133 294.081 419.063 293.796 418.926 293.53C418.789 293.265 418.587 293.023 418.332 292.82C417.816 292.412 417.12 292.183 416.394 292.182H394.59Z" fill="#F9CB30"/>
<defs>
<linearGradient id="paint0_linear_32_11" x1="522.25" y1="0" x2="522.25" y2="328.168" gradientUnits="userSpaceOnUse">
<stop stop-color="#F9CB30"/>
<stop offset="0.740525" stop-color="white"/>
<stop offset="0.740625" stop-color="white" stop-opacity="0.0884619"/>
<stop offset="0.8125" stop-color="white" stop-opacity="0"/>
<stop offset="0.855208" stop-color="white" stop-opacity="0"/>
<stop offset="0.964583" stop-color="white" stop-opacity="0"/>
<stop offset="1" stop-color="white" stop-opacity="0"/>
</linearGradient>
</defs>
</svg>
