<svg width="357" height="269" viewBox="0 0 357 269" fill="none" xmlns="http://www.w3.org/2000/svg">
<rect x="1.25" y="1" width="354" height="267" rx="25" fill="#BA8F4B" stroke="black" stroke-width="2"/>
<path d="M32.4285 96.0967C25.2122 96.0967 19.3555 102.509 19.3555 110.409C19.3555 118.309 25.2122 124.721 32.4285 124.721C39.6448 124.721 45.5015 118.309 45.5015 110.409C45.5015 102.509 39.6579 96.0967 32.4285 96.0967ZM37.9975 112.169C37.9975 114.545 36.2457 116.463 34.0756 116.463H30.8598C28.6896 116.463 26.9378 114.545 26.9378 112.169V108.649C26.9378 106.273 28.6896 104.355 30.8598 104.355H34.0756C36.2457 104.355 37.9975 106.273 37.9975 108.649V112.169Z" fill="#292D32"/>
<path d="M312.25 138.028L25.25 136" stroke="black"/>
<path d="M312.25 68.0283L25.25 66" stroke="black"/>
<path d="M32.4285 23.5132C25.2122 23.5132 19.3555 29.9251 19.3555 37.8255C19.3555 45.7258 25.2122 52.1377 32.4285 52.1377C39.6448 52.1377 45.5015 45.7258 45.5015 37.8255C45.5015 29.9251 39.6579 23.5132 32.4285 23.5132ZM37.9975 39.5859C37.9975 41.9617 36.2457 43.8795 34.0756 43.8795H30.8598C28.6896 43.8795 26.9378 41.9617 26.9378 39.5859V36.065C26.9378 33.6892 28.6896 31.7714 30.8598 31.7714H34.0756C36.2457 31.7714 37.9975 33.6892 37.9975 36.065V39.5859Z" fill="#292D32"/>
</svg>
