<svg width="125" height="41" viewBox="0 0 125 41" fill="none" xmlns="http://www.w3.org/2000/svg">
<path d="M47.1664 38.2547C46.8523 38.2547 46.5538 38.1236 46.3339 37.8941C46.0354 37.5827 45.9098 37.1238 46.0198 36.6976L47.9989 28.978C46.6795 26.4212 45.9884 23.5365 45.9884 20.6191C45.9884 10.8999 53.5593 3 62.8737 3C72.1881 3 79.7591 10.8999 79.7591 20.6191C79.7591 30.3383 72.1881 38.2383 62.8737 38.2383C60.0307 38.2383 57.2506 37.5007 54.7688 36.0912L47.4806 38.2055C47.3706 38.2383 47.2764 38.2547 47.1664 38.2547ZM54.9258 33.5508C55.13 33.5508 55.3342 33.6165 55.5227 33.7148C57.7375 35.0752 60.282 35.7962 62.8737 35.7962C70.8844 35.7962 77.403 28.9944 77.403 20.6355C77.403 12.2767 70.8844 5.47489 62.8737 5.47489C54.863 5.47489 48.3445 12.2767 48.3445 20.6355C48.3445 23.3071 49.0199 25.9131 50.2922 28.2076C50.4492 28.4863 50.4964 28.8305 50.4178 29.1419L48.8471 35.2717L54.6274 33.5999C54.7216 33.5672 54.8316 33.5508 54.9258 33.5508Z" fill="black"/>
<path d="M67.1793 30.0756C66.2055 30.0756 65.2002 29.8461 64.1478 29.3708C63.1582 28.9283 62.1687 28.3382 61.2105 27.6007C60.2681 26.8795 59.3415 26.06 58.4933 25.175C57.6451 24.2735 56.8596 23.3229 56.1685 22.3395C55.4617 21.307 54.8962 20.2908 54.4878 19.291C54.048 18.2093 53.8281 17.1439 53.8281 16.1277C53.8281 15.4066 53.9538 14.7182 54.1894 14.079C54.4407 13.407 54.8491 12.8006 55.3831 12.2761C56.3884 11.2435 57.8335 10.8666 58.9802 11.4402C59.3729 11.6205 59.7027 11.9155 59.9541 12.3089L61.776 14.9804C61.9645 15.2427 62.106 15.5213 62.216 15.7999C62.3416 16.1277 62.4202 16.4556 62.4202 16.767C62.4202 17.1931 62.31 17.6192 62.0901 17.9962C61.9488 18.242 61.7446 18.5371 61.4776 18.8157L61.2734 19.0451C61.3676 19.1763 61.4776 19.3402 61.6503 19.5368C61.9802 19.9302 62.3415 20.3563 62.7341 20.7661C63.1268 21.1594 63.5195 21.5528 63.9122 21.897C64.1007 22.0609 64.2579 22.192 64.3836 22.274L64.6033 22.0445C64.886 21.7495 65.1689 21.52 65.4517 21.3725C65.97 21.0283 66.7709 20.9464 67.4778 21.2578C67.7291 21.3561 67.9804 21.5036 68.2474 21.7003L70.8707 23.6343C71.232 23.8966 71.5145 24.2571 71.703 24.6669C71.8601 25.0766 71.9231 25.4372 71.9231 25.8142C71.9231 26.3059 71.813 26.7812 71.6088 27.2401C71.4046 27.6662 71.169 28.0432 70.8863 28.3874C70.3836 28.9611 69.8026 29.3872 69.1743 29.6658C68.546 29.9444 67.8704 30.0756 67.1793 30.0756ZM57.8335 13.6528C57.7392 13.6528 57.4252 13.6528 57.0325 14.0626C56.734 14.3576 56.5298 14.6691 56.3884 15.0132C56.2471 15.3574 56.1842 15.7508 56.1842 16.1441C56.1842 16.8325 56.3413 17.5701 56.6554 18.3568C56.9853 19.1763 57.4723 20.0449 58.0691 20.9136C58.6817 21.7823 59.3728 22.6509 60.1426 23.454C60.9122 24.2408 61.7289 24.9783 62.5771 25.6339C63.3939 26.2567 64.2265 26.7484 65.059 27.1254C66.2527 27.6662 67.3521 27.7974 68.2474 27.404C68.5616 27.2729 68.8443 27.0434 69.127 26.7484C69.2684 26.5845 69.3785 26.4206 69.4727 26.2075C69.5199 26.0928 69.5511 25.9617 69.5511 25.847C69.5511 25.8142 69.5511 25.765 69.504 25.6667L66.8809 23.7654C66.7709 23.6835 66.661 23.6179 66.5667 23.5852C66.5039 23.6179 66.4098 23.6671 66.237 23.8474L65.6402 24.4702C65.1846 24.9455 64.4621 25.0766 63.8809 24.8636L63.5982 24.7325C63.2369 24.5358 62.8284 24.2408 62.3729 23.831C61.9331 23.4376 61.5091 23.0279 61.0536 22.569C60.6138 22.0937 60.2211 21.6511 59.8441 21.1922C59.4357 20.6841 59.1529 20.2744 58.9645 19.9302L58.7917 19.5041C58.7446 19.3402 58.7288 19.1599 58.7288 18.996C58.7288 18.5371 58.886 18.1273 59.1844 17.7995L59.7813 17.1603C59.9541 16.98 60.0169 16.8817 60.0483 16.8161C60.0012 16.7014 59.9384 16.603 59.8599 16.4883L58.022 13.784L57.8335 13.6528Z" fill="black"/>
<path d="M23.515 15.865V20.9757H27.9062C28.244 20.9757 28.4129 21.3282 28.4129 21.6807L27.7373 25.0291C27.7373 25.2053 27.3995 25.3815 27.2306 25.3815H23.515V38.2465H18.4482V25.5578H15.577C15.2392 25.5578 15.0703 25.3815 15.0703 25.0291V21.6807C15.0703 21.3282 15.2392 21.152 15.577 21.152H18.4482V15.3363C18.4482 12.3403 20.6438 10.0493 23.515 10.0493H28.0751C28.4129 10.0493 28.5818 10.2255 28.5818 10.578V14.8076C28.5818 15.1601 28.4129 15.3363 28.0751 15.3363H24.0216C23.6839 15.3363 23.515 15.5125 23.515 15.865Z" stroke="#17191C" stroke-width="4.743" stroke-miterlimit="10" stroke-linecap="round"/>
<path d="M25.2061 38.2465H15.0725C6.62786 38.2465 3.25 34.7218 3.25 25.9102V15.3363C3.25 6.52465 6.62786 3 15.0725 3H25.2061C33.6508 3 37.0286 6.52465 37.0286 15.3363V25.9102C37.0286 34.7218 33.6508 38.2465 25.2061 38.2465Z" stroke="#17191C" stroke-width="4.743" stroke-linecap="round" stroke-linejoin="round"/>
<path d="M100.533 38.2465H110.667C119.112 38.2465 122.49 34.7218 122.49 25.9102V15.3363C122.49 6.52465 119.112 3 110.667 3H100.533C92.0888 3 88.7109 6.52465 88.7109 15.3363V25.9102C88.7109 34.7218 92.0888 38.2465 100.533 38.2465Z" stroke="#292D32" stroke-width="4.743" stroke-linecap="round" stroke-linejoin="round"/>
<path d="M105.603 26.7914C108.867 26.7914 111.514 24.0298 111.514 20.6232C111.514 17.2166 108.867 14.4551 105.603 14.4551C102.338 14.4551 99.6914 17.2166 99.6914 20.6232C99.6914 24.0298 102.338 26.7914 105.603 26.7914Z" stroke="#292D32" stroke-width="4.743" stroke-linecap="round" stroke-linejoin="round"/>
<path d="M115.121 11.8115H115.141" stroke="#292D32" stroke-width="6.324" stroke-linecap="round" stroke-linejoin="round"/>
</svg>
