<svg width="28" height="21" viewBox="0 0 28 21" fill="none" xmlns="http://www.w3.org/2000/svg">
<path d="M26.9913 18.6378L21.9631 15.0637C23.9149 13.3198 24.8601 11.1063 24.6043 8.87836C24.3486 6.6504 22.9114 4.57733 20.5882 3.08541C18.265 1.59349 15.2324 0.79613 12.114 0.857278C8.99566 0.918426 6.02848 1.83344 3.82262 3.41416C1.61677 4.99489 0.339899 7.12118 0.254569 9.35583C0.169239 11.5905 1.28193 13.7636 3.36386 15.4284C5.44578 17.0932 8.3387 18.1232 11.4477 18.3064C14.5568 18.4897 17.6457 17.8124 20.0792 16.4137L25.0667 19.9878C25.1927 20.0788 25.3426 20.1511 25.5078 20.2004C25.6729 20.2497 25.8501 20.2751 26.029 20.2751C26.2079 20.2751 26.3851 20.2497 26.5502 20.2004C26.7154 20.1511 26.8653 20.0788 26.9913 19.9878C27.2355 19.8067 27.3721 19.5647 27.3721 19.3128C27.3721 19.0609 27.2355 18.8189 26.9913 18.6378ZM12.476 16.4137C10.5996 16.4137 8.76541 16.015 7.20527 15.268C5.64512 14.5209 4.42914 13.4592 3.71108 12.2169C2.99303 10.9746 2.80515 9.60768 3.17122 8.2889C3.53728 6.97012 4.44083 5.75875 5.76763 4.80796C7.09442 3.85717 8.78486 3.20968 10.6252 2.94736C12.4655 2.68504 14.373 2.81967 16.1066 3.33423C17.8401 3.84879 19.3218 4.72017 20.3642 5.83818C21.4067 6.95619 21.9631 8.2706 21.9631 9.61522C21.9631 11.4183 20.9636 13.1475 19.1844 14.4225C17.4052 15.6974 14.9921 16.4137 12.476 16.4137Z" fill="black"/>
</svg>
