<svg width="64" height="64" viewBox="0 0 64 64" fill="none" xmlns="http://www.w3.org/2000/svg">
<g filter="url(#filter0_b_32_55)">
<path d="M31.62 0C14.1974 0 0 14.1974 0 31.62C0 49.0426 14.1974 63.24 31.62 63.24C49.0426 63.24 63.24 49.0426 63.24 31.62C63.24 14.1974 49.0426 0 31.62 0ZM40.442 33.2959L29.2801 44.4577C28.8058 44.932 28.205 45.1534 27.6043 45.1534C27.0035 45.1534 26.4027 44.932 25.9284 44.4577C25.0114 43.5407 25.0114 42.023 25.9284 41.106L35.4144 31.62L25.9284 22.134C25.0114 21.217 25.0114 19.6993 25.9284 18.7823C26.8454 17.8653 28.3631 17.8653 29.2801 18.7823L40.442 29.9441C41.3906 30.8611 41.3906 32.3789 40.442 33.2959Z" fill="#FDD30A"/>
<path d="M1 31.62C1 14.7497 14.7497 1 31.62 1C48.4903 1 62.24 14.7497 62.24 31.62C62.24 48.4903 48.4903 62.24 31.62 62.24C14.7497 62.24 1 48.4903 1 31.62ZM29.9872 45.1648L41.1437 34.0083C42.49 32.6998 42.49 30.5401 41.1437 29.2316L29.9872 18.0752C28.6797 16.7677 26.5288 16.7677 25.2213 18.0752C23.9138 19.3827 23.9138 21.5336 25.2213 22.8411L34.0002 31.62L25.2213 40.3989C23.9138 41.7064 23.9138 43.8573 25.2213 45.1648C25.893 45.8365 26.7526 46.1534 27.6043 46.1534C28.4559 46.1534 29.3155 45.8365 29.9872 45.1648Z" stroke="black" stroke-width="2"/>
</g>
<defs>
<filter id="filter0_b_32_55" x="-15" y="-15" width="93.2383" height="93.2402" filterUnits="userSpaceOnUse" color-interpolation-filters="sRGB">
<feFlood flood-opacity="0" result="BackgroundImageFix"/>
<feGaussianBlur in="BackgroundImageFix" stdDeviation="7.5"/>
<feComposite in2="SourceAlpha" operator="in" result="effect1_backgroundBlur_32_55"/>
<feBlend mode="normal" in="SourceGraphic" in2="effect1_backgroundBlur_32_55" result="shape"/>
</filter>
</defs>
</svg>
