<svg width="31" height="34" viewBox="0 0 31 34" fill="none" xmlns="http://www.w3.org/2000/svg">
<path d="M15.25 0C12.2833 0 9.38319 0.997032 6.91645 2.86502C4.44972 4.733 2.52713 7.38804 1.39181 10.4944C0.256499 13.6007 -0.0405507 17.0189 0.538228 20.3165C1.11701 23.6142 2.54562 26.6433 4.6434 29.0208C6.74119 31.3983 9.41394 33.0174 12.3237 33.6733C15.2334 34.3293 18.2494 33.9926 20.9903 32.7059C23.7311 31.4193 26.0738 29.2403 27.722 26.4447C29.3703 23.6491 30.25 20.3623 30.25 17C30.25 14.7675 29.862 12.5569 29.1082 10.4944C28.3544 8.43184 27.2495 6.55778 25.8566 4.97918C24.4637 3.40059 22.8101 2.14838 20.9903 1.29405C19.1704 0.439718 17.2198 0 15.25 0ZM15.25 30.6C12.8766 30.6 10.5566 29.8024 8.58316 28.308C6.60977 26.8136 5.0717 24.6896 4.16345 22.2045C3.2552 19.7194 3.01756 16.9849 3.48058 14.3468C3.94361 11.7086 5.08649 9.28534 6.76472 7.38335C8.44295 5.48135 10.5812 4.18608 12.9089 3.66132C15.2367 3.13656 17.6495 3.40589 19.8422 4.43524C22.0349 5.46459 23.9091 7.20773 25.2276 9.44424C26.5462 11.6807 27.25 14.3102 27.25 17C27.25 20.6069 25.9857 24.0662 23.7353 26.6166C21.4848 29.1671 18.4326 30.6 15.25 30.6ZM21.25 15.3H16.75V10.2C16.75 9.74913 16.592 9.31673 16.3107 8.99792C16.0294 8.6791 15.6478 8.5 15.25 8.5C14.8522 8.5 14.4706 8.6791 14.1893 8.99792C13.908 9.31673 13.75 9.74913 13.75 10.2V15.3H9.25C8.85218 15.3 8.47065 15.4791 8.18935 15.7979C7.90804 16.1167 7.75001 16.5491 7.75001 17C7.75001 17.4509 7.90804 17.8833 8.18935 18.2021C8.47065 18.5209 8.85218 18.7 9.25 18.7H13.75V23.8C13.75 24.2509 13.908 24.6833 14.1893 25.0021C14.4706 25.3209 14.8522 25.5 15.25 25.5C15.6478 25.5 16.0294 25.3209 16.3107 25.0021C16.592 24.6833 16.75 24.2509 16.75 23.8V18.7H21.25C21.6478 18.7 22.0294 18.5209 22.3107 18.2021C22.592 17.8833 22.75 17.4509 22.75 17C22.75 16.5491 22.592 16.1167 22.3107 15.7979C22.0294 15.4791 21.6478 15.3 21.25 15.3Z" fill="black"/>
</svg>
