<svg width="5" height="18" viewBox="0 0 5 18" fill="none" xmlns="http://www.w3.org/2000/svg">
<path d="M2.25 4C2.64556 4 3.03224 3.8827 3.36114 3.66294C3.69004 3.44318 3.94639 3.13082 4.09776 2.76537C4.24914 2.39992 4.28874 1.99778 4.21157 1.60982C4.1344 1.22186 3.94392 0.865492 3.66421 0.585787C3.38451 0.306082 3.02814 0.115601 2.64018 0.0384303C2.25222 -0.0387401 1.85009 0.000866562 1.48463 0.152242C1.11918 0.303617 0.806825 0.559962 0.587062 0.88886C0.367299 1.21776 0.250001 1.60444 0.250001 2C0.250001 2.53043 0.460715 3.03914 0.835788 3.41421C1.21086 3.78929 1.71957 4 2.25 4ZM2.25 14C1.85444 14 1.46776 14.1173 1.13886 14.3371C0.809963 14.5568 0.553617 14.8692 0.402242 15.2346C0.250867 15.6001 0.21126 16.0022 0.28843 16.3902C0.365601 16.7781 0.556083 17.1345 0.835788 17.4142C1.11549 17.6939 1.47186 17.8844 1.85982 17.9616C2.24778 18.0387 2.64992 17.9991 3.01537 17.8478C3.38082 17.6964 3.69318 17.44 3.91294 17.1111C4.1327 16.7822 4.25 16.3956 4.25 16C4.25 15.4696 4.03929 14.9609 3.66421 14.5858C3.28914 14.2107 2.78043 14 2.25 14ZM2.25 7C1.85444 7 1.46776 7.1173 1.13886 7.33706C0.809963 7.55682 0.553617 7.86918 0.402242 8.23463C0.250867 8.60009 0.21126 9.00222 0.28843 9.39018C0.365601 9.77814 0.556083 10.1345 0.835788 10.4142C1.11549 10.6939 1.47186 10.8844 1.85982 10.9616C2.24778 11.0387 2.64992 10.9991 3.01537 10.8478C3.38082 10.6964 3.69318 10.44 3.91294 10.1111C4.1327 9.78224 4.25 9.39556 4.25 9C4.25 8.46957 4.03929 7.96086 3.66421 7.58579C3.28914 7.21071 2.78043 7 2.25 7Z" fill="black"/>
</svg>
